<svg width="100" height="111" viewBox="0 0 100 111" fill="none" xmlns="http://www.w3.org/2000/svg">
<path d="M8.9903 109.866C8.81104 109.374 7.38419 107.401 7.01224 107.131C6.90587 107.054 6.27723 105.848 5.61528 104.45C4.78207 102.691 4.30827 101.259 4.07544 99.796C3.51316 96.2624 2.90957 96.4477 2.24158 100.359C2.03561 101.565 1.78132 103.673 1.67648 105.043C1.4558 107.927 1.31931 107.756 0.515898 103.593C-0.496453 98.347 -0.0506294 94.761 2.13507 90.5692C2.86413 89.171 3.62172 87.9651 3.81858 87.8896C4.01544 87.8141 4.17651 87.5741 4.17651 87.3563C4.17651 86.9625 7.14359 83.8354 8.89659 82.3816C9.40137 81.963 10.8174 81.1379 12.0433 80.548L14.2722 79.4757L17.8123 79.4847C21.049 79.4927 21.5209 79.5573 23.319 80.2363C26.2927 81.3591 26.1759 81.4045 27.1779 78.7361C27.6556 77.4641 28.161 75.694 28.3011 74.8027C28.4412 73.9114 28.6686 72.6395 28.8066 71.9762C28.9445 71.313 29.1927 69.5135 29.3581 67.9773C29.6873 64.9196 29.3917 60.676 28.6808 58.2532C28.4721 57.542 28.3013 56.6726 28.3013 56.3212C28.3013 55.596 26.3633 51.1287 25.75 50.4402C25.5282 50.1912 25.2564 50.0433 25.146 50.1116C25.0356 50.1797 24.8598 51.7178 24.7553 53.5294C24.5245 57.5323 24.9322 63.453 25.8052 68.7738C26.1541 70.9003 26.4032 72.6766 26.3586 72.7212C26.2525 72.8273 24.6777 70.876 23.6621 69.3799C21.1453 65.6727 19.4152 62.4239 18.3554 59.4153C16.2284 53.3767 15.6816 51.3379 14.5119 45.0843C14.445 44.7264 13.8659 44.2151 12.9282 43.6859C11.473 42.8646 8.89659 40.668 8.89659 40.2485C8.89659 40.1304 8.60984 39.6113 8.25937 39.0948C7.42808 37.8699 6.35191 34.5259 6.14887 32.5371C5.95521 30.64 6.54461 27.0186 7.27164 25.6386C8.76299 22.8078 9.21444 22.0276 9.62525 21.5709C10.3421 20.7741 12.086 19.6615 13.174 19.3068C14.3962 18.9085 14.7429 18.1643 14.6817 16.0713C14.6261 14.1717 15.4673 12.2014 16.8896 10.8994C17.4387 10.3968 18.102 9.78399 18.3637 9.53758C18.6253 9.29117 19.3268 8.84095 19.9224 8.53709C20.518 8.23323 21.9684 7.01557 23.1455 5.83118C25.167 3.79724 27.0854 2.50797 29.6125 1.48507C30.2868 1.21213 31.9563 1.10248 35.9059 1.07175C40.1187 1.03898 41.7637 0.921919 43.5105 0.530628C46.641 -0.170628 53.8964 -0.178431 56.3596 0.5168C57.297 0.781399 58.5209 1.08936 59.0792 1.20117C59.6376 1.31297 61.1716 1.95703 62.4882 2.63241C64.8703 3.85439 64.8996 3.86155 68.4988 4.10081C72.9622 4.39752 74.9619 4.70551 77.9933 5.56313C82.1994 6.75312 84.0846 7.87687 86.3033 10.5168C87.7031 12.1823 90.7113 17.7097 90.7113 18.6163C90.7113 19.7654 94.8107 27.1003 96.8793 29.6526C97.8652 30.8691 98.8221 32.7184 99.5251 34.766C99.9054 35.8736 100.015 36.9079 99.9984 39.2238C99.9789 41.9105 99.8819 42.5193 99.11 44.8051C98.6335 46.2163 97.6192 48.4275 96.8561 49.719C96.0929 51.0105 95.3984 52.2881 95.3127 52.5581C95.1186 53.1695 89.2939 58.8909 88.8655 58.8909C88.5794 58.8909 86.0357 60.6107 85.7289 61.0116C85.6568 61.1059 84.6538 61.787 83.5 62.5253C82.3462 63.2636 81.2842 63.9604 81.14 64.0737C80.9957 64.187 80.1602 64.8288 79.2831 65.4999C77.2061 67.0893 74.2801 69.9226 72.83 71.7488C71.63 73.26 68.8113 78.1318 67.8751 80.313C67.5775 81.0062 66.6224 83.6975 65.7527 86.2935C64.1896 90.9591 61.7251 96.4006 60.5207 97.8456C57.2185 101.807 53.4305 104.835 50.0649 106.203C48.0961 107.003 42.2386 108.191 40.2965 108.185C39.5403 108.182 38.0955 107.995 37.0859 107.768C36.0764 107.541 34.8297 107.268 34.3155 107.161C33.1222 106.913 30.1193 104.953 28.4564 103.338C26.6404 101.574 25.5046 99.7751 24.8543 97.6342C24.3784 96.0673 24.3184 95.4062 24.4582 93.2695C24.5489 91.8845 24.7862 90.0728 24.9855 89.2436C25.1849 88.4143 25.275 87.7332 25.1858 87.73C25.0966 87.727 24.3523 87.0948 23.532 86.3254C20.2443 83.2418 18.1089 83.1672 14.7172 86.0175C12.9502 87.5026 11.104 89.6958 9.92172 91.7146C8.76665 93.687 7.84509 97.5558 7.85108 100.407C7.85508 102.248 8.70189 107.883 9.17045 109.186C9.34163 109.662 9.4118 110.122 9.32641 110.207C9.24098 110.292 9.08977 110.139 8.9903 109.866V109.866ZM45.8475 105.771C46.6484 105.374 47.0779 104.981 47.1325 104.598C47.2077 104.07 47.3202 104.035 48.5074 104.176C49.3965 104.281 50.1537 104.194 50.9319 103.897C52.1661 103.425 54.2618 101.582 54.2618 100.968C54.2618 100.715 54.535 100.585 55.0657 100.585C55.5078 100.585 56.0889 100.468 56.3569 100.324C57.1773 99.8851 59.4188 96.2736 59.764 94.8349C60.0192 93.7712 60.2499 93.4049 60.8654 93.0866C62.0604 92.4687 62.9095 90.4073 62.9127 88.1163L62.9157 86.2678L63.8576 85.9272C65.0284 85.5038 65.5379 84.4101 65.5379 82.3199C65.5379 81.152 65.6611 80.6895 66.0953 80.2273C66.4705 79.8279 66.6633 79.2623 66.6853 78.4966C66.7103 77.6267 66.9201 77.1147 67.5775 76.3196C68.7534 74.8974 69.7335 72.8598 69.7335 71.8373C69.7335 71.2267 69.8767 70.9432 70.2439 70.8266C70.7978 70.6508 73.2239 67.2545 73.8274 65.81C74.0325 65.3192 74.1264 64.6237 74.0363 64.2643C73.8812 63.6465 73.9316 63.611 74.9623 63.611C75.9598 63.611 76.207 63.4572 77.8752 61.7989C79.1951 60.4868 79.6981 59.7994 79.6981 59.3077C79.6981 58.7911 79.8308 58.6287 80.253 58.6287C80.9251 58.6287 83.0188 57.1304 84.1551 55.8363C84.7348 55.176 84.9404 54.722 84.8403 54.3233C84.7102 53.805 84.7816 53.7635 85.6326 53.8628C86.4804 53.9618 86.7143 53.8281 88.135 52.4325C90.285 50.3205 91.0051 49.0276 91.169 46.9849C91.2434 46.058 91.1823 45.1124 91.0304 44.841C90.8062 44.4404 90.8903 44.2754 91.5113 43.8978C93.2926 42.8145 94.0817 39.1359 92.8207 37.7936C92.0133 36.9342 91.3215 36.9493 90.3675 37.8472L89.6014 38.5684L90.2006 37.3883C91.0454 35.7247 91.0605 32.6391 90.2304 31.296C88.7119 28.839 83.9145 28.9893 82.6324 31.5341C82.3544 32.0858 82.0408 33.1271 81.9354 33.8483L81.7438 35.1594L81.2334 34.1649C80.1991 32.1496 77.6032 31.5291 75.2456 32.7338C73.4899 33.6309 73.0042 34.466 73.0473 36.5128C73.0671 37.4522 72.9987 38.1221 72.8955 38.0013C72.7921 37.8805 72.2647 37.2267 71.7235 36.5484C70.603 35.1443 69.0544 34.1461 67.3181 33.7089C66.3487 33.4648 65.8205 33.4866 64.4992 33.8251C62.5059 34.3357 62.5111 34.3357 62.9275 33.834C63.9171 32.6416 65.5838 32.3436 69.1517 32.7213C72.3847 33.0635 72.3809 33.0641 76.4202 31.6221C79.0073 30.6985 79.9603 30.0148 79.9603 29.0825C79.9603 28.2967 80.1115 28.3143 80.8628 29.1878C81.7939 30.2702 83.3115 30.1967 84.5359 29.01C85.0426 28.5189 85.5933 27.7046 85.7597 27.2004C86.0622 26.2838 85.9425 22.8181 85.5722 21.7739C85.4722 21.492 85.8299 21.7629 86.367 22.3759C88.0343 24.2787 88.876 23.7311 88.876 20.7437C88.876 18.6341 88.3112 17.395 86.7217 16.0172L85.5982 15.0433L86.4765 15.2289C87.3082 15.4046 87.3447 15.3817 87.1644 14.7979C86.6332 13.0781 85.4192 11.5977 84.0906 11.0497C83.6217 10.8563 82.4121 10.5472 81.4025 10.3628L79.567 10.0275L79.6524 8.95768C79.725 8.04787 79.6177 7.77316 78.9347 7.12102C77.8749 6.10908 76.5915 5.66955 74.1433 5.48008C72.4048 5.34555 72.0029 5.3983 71.2121 5.86491C70.3578 6.36898 70.2115 6.38033 69.055 6.03229C67.4416 5.54672 65.707 5.55909 63.9919 6.0684C62.8312 6.41309 62.5533 6.62091 62.2353 7.38191C61.8731 8.24876 61.8146 8.27907 60.8119 8.11874C59.2466 7.86843 57.623 8.43375 56.384 9.6605C55.3827 10.6519 55.3109 10.821 55.3107 12.1899L55.3104 13.6568L53.9322 13.6695C51.1879 13.6947 47.4442 16.3595 47.4442 18.2877C47.4442 20.0841 51.6139 21.3702 54.6121 20.4986C56.5147 19.9455 57.0274 19.1108 56.7763 16.9745L56.6069 15.5336L57.1621 16.2394C58.2164 17.5796 60.3988 18.174 61.4003 17.3936C62.4908 16.5439 62.9135 15.2962 62.9145 12.9247L62.9155 10.6192L63.9049 11.6592C64.449 12.2312 65.2267 12.7826 65.6331 12.8846C66.6899 13.1499 68.1428 12.6353 69.4175 11.5442C70.3734 10.726 70.523 10.4548 70.5422 9.50637L70.5643 8.41233L71.0635 9.4969C71.6981 10.8754 73.102 12.1129 74.4402 12.4733C75.4894 12.7558 76.6952 12.6182 76.9626 12.1856C77.262 11.7011 77.6175 11.9545 77.3472 12.4596C77.1978 12.7386 77.0757 13.2824 77.0757 13.6681C77.0757 14.5753 79.0504 16.44 80.9366 17.3137C81.8095 17.7181 82.4988 18.2638 82.8368 18.8182C83.6384 20.133 83.4964 20.4142 82.4049 19.6735C81.8746 19.3137 81.1563 18.9478 80.8087 18.8606C79.9904 18.6552 78.9805 19.401 78.2991 20.7142L77.782 21.7106L78.6089 23.7329C79.6704 26.3293 79.6853 26.8463 78.6692 25.8302C77.6923 24.8533 76.3897 24.7951 75.3257 25.6807C74.918 26.0201 73.5225 27.0409 72.2244 27.9492C70.9264 28.8575 69.7816 29.6714 69.6804 29.7578C69.5792 29.8442 70.1102 29.8732 70.8604 29.8222C72.6494 29.7007 72.3316 29.9684 69.9536 30.586C65.1079 31.8445 60.5636 30.6405 57.886 27.3887C56.4409 25.6337 54.2089 23.5073 52.8197 22.562C50.8228 21.2032 48.7689 20.5974 45.5611 20.421L42.7603 20.2669L41.9767 21.0505C41.04 21.9872 40.5364 23.6544 40.7832 25.002C40.9624 25.9812 40.9623 25.9813 40.4123 25.4921C40.1097 25.223 39.5569 24.2042 39.1839 23.2281C38.2642 20.8212 37.8329 20.4747 35.7568 20.4747C34.6212 20.4747 33.9632 20.6007 33.6943 20.8696C33.4771 21.0868 32.8881 22.4438 32.3853 23.8852L31.4712 26.5059L31.4597 23.4438C31.4485 20.4542 31.4318 20.3688 30.7573 19.8382C29.7935 19.08 28.0836 19.1266 26.2365 19.9612C24.7002 20.6553 23.5556 21.9175 23.2248 23.2821C23.1302 23.6723 22.9191 24.3213 22.7558 24.7243L22.4589 25.457L22.2596 24.8014C22.15 24.4409 22.0486 23.6116 22.0342 22.9586C21.9977 21.3038 21.4917 20.7039 19.8157 20.3289C17.1053 19.7223 15.0505 21.1202 12.9237 25.0175C12.2686 26.218 11.6807 27.1484 11.6172 27.0849C11.5538 27.0215 11.9311 25.714 12.4557 24.1794C12.9802 22.6448 13.3418 21.213 13.2591 20.9975C12.9547 20.2041 11.8238 20.5515 10.9974 21.6924C8.8987 24.5895 8.10686 27.8568 8.63237 31.4508C9.06042 34.3782 9.32468 34.7882 11.7189 36.2398C13.0007 37.017 13.6168 36.9168 13.6168 35.931V35.2439L14.4236 35.9228C15.3615 36.7119 15.9438 36.7661 17.1043 36.172C18.7469 35.3311 20.3206 33.7527 21.484 31.7792C22.131 30.6817 22.7442 29.7837 22.8468 29.7837C22.9493 29.7837 23.1092 30.1892 23.2022 30.6847C23.2952 31.1803 23.7852 32.0694 24.2912 32.6605C25.5382 34.1174 26.965 34.8144 28.4951 34.7142L29.7048 34.6349L30.0037 33.1318C30.3699 31.2899 30.5627 31.063 30.9333 32.0379C31.5963 33.7817 32.0981 34.5703 33.0787 35.4096C34.4104 36.5496 36.1829 36.9839 38.6518 36.7752L40.5349 36.616L40.9768 38.0179C41.3019 39.0492 41.7562 39.7355 42.6949 40.6136C45.4045 43.1481 49.8772 44.6436 51.5229 43.5653C51.9006 43.3178 52.2336 43.1543 52.2629 43.2019C52.2922 43.2494 52.4306 43.6374 52.5704 44.064C53.0785 45.6148 57.3258 47.7441 60.4994 48.0391C64.5238 48.4131 65.1134 47.5524 63.8296 43.1772C63.4731 41.9623 63.2237 40.9259 63.2754 40.8742C63.3271 40.8225 63.6337 41.4866 63.9566 42.35C64.3844 43.4939 64.9179 44.2738 65.9232 45.2245C67.4132 46.6337 68.5076 47.0183 70.1501 46.7102C71.3306 46.4887 73.274 44.7404 73.6685 43.545L73.9593 42.6638L75.1897 43.3195C77.2121 44.3974 78.7716 43.8664 81.3044 41.2377L82.8657 39.6172L82.0687 41.3217C80.2419 45.2282 81.8433 46.8227 85.7886 45.0255C86.4611 44.7191 87.0882 44.4684 87.182 44.4684C87.2759 44.4684 87.6953 44.2243 88.1142 43.9261C89.5543 42.9006 88.8736 43.6611 87.0464 45.119C85.9098 46.0259 84.4947 46.8539 83.3097 47.3055C81.0114 48.1814 80.5 48.8769 81.0993 50.3113C81.3329 50.8704 81.7725 51.3217 82.294 51.5377L83.1189 51.8794L81.4423 52.4436C79.4656 53.1089 77.9307 54.2001 77.7046 55.1011C77.6156 55.4556 77.5876 56.1288 77.6423 56.5971C77.7397 57.4316 77.7206 57.4488 76.6875 57.4586C75.4522 57.4703 74.1051 58.0727 72.9449 59.1325C71.9724 60.0206 71.644 61.0599 72.0206 62.0576C72.2698 62.7179 72.2339 62.783 71.5444 62.9209C69.7635 63.2771 67.6153 66.7224 67.9939 68.6152C68.1204 69.248 68.0598 69.3799 67.6423 69.3799C66.4804 69.3799 64.8228 72.9328 65.0822 74.8671C65.1992 75.7395 65.1339 75.9158 64.6049 76.1569C64.2678 76.3105 63.7949 76.737 63.554 77.1047C63.1789 77.6772 63.1601 77.9488 63.4232 78.9936C63.7523 80.3005 63.5769 80.6431 62.5742 80.6516C61.7937 80.6586 61.2695 82.3102 61.478 84.1062C61.6329 85.4408 61.5986 85.638 61.2116 85.638C60.542 85.638 59.2884 86.6275 58.8265 87.5208C58.5389 88.077 58.4423 88.8531 58.5026 90.123C58.5499 91.1183 58.5668 91.9323 58.5402 91.932C58.5135 91.9317 58.1722 91.8099 57.7816 91.6614C57.1335 91.415 56.9728 91.4944 55.9417 92.5705C54.7305 93.8346 53.9998 95.6841 53.9998 97.4857C53.9998 98.5891 53.9093 98.6416 52.9509 98.0937C52.5903 97.8876 51.79 97.7148 51.1724 97.7097C48.9978 97.6918 47.3773 98.8832 47.0254 100.759L46.8551 101.666L46.3854 100.894C44.9817 98.5858 42.5043 98.8205 40.6056 101.442C39.9581 102.336 39.8258 102.416 39.6916 101.995C39.2567 100.631 38.9669 100.288 37.7156 99.6539C36.9693 99.2756 35.7335 98.9017 34.9694 98.8228C33.6689 98.6886 33.5332 98.731 32.8412 99.4887L32.102 100.298L32.1958 99.1193C32.3693 96.9376 31.5599 95.9023 29.2202 95.3132C28.0848 95.0273 28.0036 94.9525 28.142 94.32C28.2242 93.9437 28.364 92.7509 28.4526 91.6692C28.5747 90.1772 28.5236 89.5839 28.2409 89.2114C27.6966 88.4941 26.8043 88.8818 26.3173 90.0471C25.2589 92.5804 25.3314 94.7331 26.4962 95.3565C26.9053 95.5754 26.9763 95.8046 26.8476 96.4906C26.7282 97.1273 26.9032 97.867 27.5223 99.3419C28.5895 101.884 29.2578 102.531 30.8482 102.561C31.7906 102.579 32.0972 102.695 32.2448 103.092C32.8148 104.625 35.575 106.202 37.7091 106.214C38.8508 106.221 39.1747 106.123 39.4135 105.698C39.5757 105.41 39.7392 105.123 39.7767 105.062C39.8143 105 40.1683 105.251 40.5634 105.619C40.9585 105.987 41.4588 106.36 41.6751 106.446C42.3977 106.737 44.6311 106.375 45.8477 105.771L45.8475 105.771ZM52.469 37.3708C51.8882 35.2007 51.002 33.6503 49.5633 32.287C48.8688 31.6289 48.49 31.4962 47.0433 31.4041C45.0965 31.2801 44.0395 31.6198 43.1748 32.6476L42.5874 33.3456L42.5904 30.9098C42.5924 29.5701 42.6788 28.4736 42.7836 28.4733C42.8884 28.473 44.0684 28.8804 45.4058 29.3789C48.5395 30.5468 49.5565 30.7531 53.2122 30.9629C56.5546 31.1546 58.1646 31.6665 59.3645 32.9189L60.0706 33.656L58.5717 32.8999C56.6742 31.9428 54.6912 31.8619 53.6279 32.6983L52.9229 33.2528L53.1052 36.3695C53.2055 38.0836 53.2308 39.4861 53.1615 39.4861C53.0922 39.4861 52.7808 38.5342 52.4694 37.3708H52.469ZM72.5685 29.6046C72.7577 29.5289 72.9839 29.5382 73.0711 29.6253C73.1582 29.7124 73.0033 29.7744 72.7269 29.763C72.4214 29.7505 72.3593 29.6883 72.5685 29.6046V29.6046ZM47.3544 28.9715C45.4013 28.6861 43.7329 27.7787 43.395 26.8178C43.0828 25.9301 43.3455 25.4299 44.5572 24.6048C46.3673 23.3721 49.5894 24.204 51.4574 26.3863C52.8099 27.9664 52.7267 28.2287 51.0495 27.6721C50.2923 27.4208 49.1713 27.1337 48.5583 27.0342C47.5863 26.8763 47.4436 26.9147 47.4415 27.3351C47.4405 27.6002 47.8237 28.1384 48.2938 28.5311C48.7638 28.9239 49.0894 29.234 49.0172 29.2203C48.9451 29.2066 48.1968 29.0946 47.3544 28.9715V28.9715ZM6.72572 101.306C6.73162 98.1215 6.83017 97.2206 7.39441 95.2093C8.20047 92.336 8.85091 90.565 9.6095 89.178C10.2074 88.085 13.5472 84.202 14.3405 83.6776C15.6041 82.8423 19.2541 81.6865 21.1496 81.5215L23.1879 81.344L21.6146 80.8483C18.7044 79.9314 15.6932 80.6351 12.4304 82.9944C11.2318 83.8611 7.33164 88.0563 6.475 89.4002C6.36904 89.5665 6.28054 89.5988 6.27834 89.4721C6.27634 89.3454 6.72226 88.5784 7.26975 87.7677C7.81723 86.9569 8.58415 85.7417 8.97403 85.0672C9.3639 84.3927 9.94848 83.6197 10.2731 83.3494C10.5977 83.0792 11.2173 82.4652 11.65 81.985L12.4366 81.1119L10.6011 82.2327C9.59148 82.8492 7.78231 84.3502 6.58068 85.5682C4.70267 87.4719 4.19532 88.1938 2.96749 90.7094C1.32641 94.0717 0.497891 97.4368 0.536078 100.585L0.559958 102.552L0.935503 101.241C1.76864 98.3318 2.34209 96.6667 3.01965 95.1886L3.73143 93.636L4.05059 96.1271C4.37344 98.6472 5.10375 101.808 5.47425 102.289C5.58532 102.434 5.8858 103.112 6.142 103.797C6.3982 104.482 6.63285 105.043 6.66347 105.043C6.6941 105.043 6.72214 103.361 6.72571 101.306L6.72572 101.306ZM44.4729 96.935C48.2552 96.1545 48.342 95.8854 44.8216 95.8534C43.163 95.8383 41.275 95.7315 40.626 95.616C39.5507 95.4246 39.6321 95.4029 41.5438 95.3712C44.1411 95.3281 46.6049 94.9409 48.049 94.3489L49.1483 93.8981L47.9683 93.7624L46.7883 93.6267L48.0994 92.9224C49.536 92.1507 49.5786 91.9902 48.1971 92.5553C47.7107 92.7542 46.6048 92.995 45.7394 93.0904C44.8741 93.1857 43.8268 93.3306 43.4122 93.4123C42.9557 93.5023 42.7204 93.4603 42.8158 93.306C42.9024 93.1658 43.7137 92.8943 44.6186 92.7027L46.2639 92.3543L45.215 92.1974L44.1661 92.0405L45.215 91.5805C45.7919 91.3275 46.6769 90.8473 47.1817 90.5134C47.6865 90.1796 49.0196 89.3349 50.1441 88.6364C51.2687 87.9379 52.3307 87.186 52.5042 86.9656C52.7652 86.6339 52.7031 86.6391 52.1437 86.9956C51.7719 87.2325 50.8869 87.6022 50.177 87.8171C49.467 88.032 48.0011 88.5648 46.9195 89.0012C43.8024 90.2585 43.0995 90.326 44.9528 89.1899C46.634 88.1593 47.3726 87.5457 46.6103 87.8129C46.3682 87.8977 45.7191 88.0387 45.1681 88.1259C44.1876 88.2812 44.1802 88.2763 44.8217 87.8988C45.6796 87.3938 49.9791 82.7222 51.1099 81.0662L51.9935 79.7722L50.1776 81.2231C47.9654 82.9905 45.0839 84.9429 45.0839 84.6743C45.0839 84.5662 45.5321 84.0013 46.0799 83.419C46.6277 82.8366 47.2868 81.8881 47.5445 81.3112L48.0131 80.2623L47.1385 81.073C46.0202 82.1095 44.5652 83.1089 44.4061 82.9498C44.3384 82.8821 44.9412 81.5547 45.7455 80L47.208 77.1732L45.3212 78.9201C44.2835 79.8809 43.398 80.6305 43.3534 80.586C43.3088 80.5414 43.6091 79.5063 44.0208 78.2858C44.4324 77.0653 44.8398 75.5947 44.9262 75.0178C45.0483 74.2018 44.9173 74.4056 44.3364 75.9356C43.4229 78.3412 42.4711 79.9935 42.4482 79.2134C42.4403 78.925 42.21 79.5389 41.9377 80.5776C41.6655 81.6164 41.1732 82.9346 40.8438 83.5069C40.2945 84.4614 40.2791 84.5872 40.6578 85.0272C41.5799 86.0984 41.5581 86.2546 40.5104 86.0846C39.5533 85.9293 39.5312 85.9437 39.6992 86.613C39.7941 86.9914 40.1118 87.6054 40.4051 87.9773C41.0764 88.8288 40.6584 88.974 39.0909 88.4339C38.493 88.2279 38.0038 88.1092 38.0038 88.1702C38.0038 88.5309 39.1784 90.483 39.8681 91.2685C40.8241 92.3574 40.4499 92.4614 38.856 91.5501C37.7722 90.9304 37.3361 91.0063 38.1412 91.6744C39.484 92.7888 36.8235 91.6201 34.6122 90.1242C33.9728 89.6916 33.3533 89.3972 33.2355 89.47C32.742 89.775 33.0958 90.5218 34.2379 91.5853C35.5696 92.8254 35.5408 93.0214 34.153 92.1637C33.6597 91.8588 33.1898 91.6756 33.1088 91.7566C33.0278 91.8376 33.565 92.5978 34.3026 93.4458C35.0402 94.2938 35.6437 95.0564 35.6437 95.1403C35.6437 95.3381 33.2963 94.7192 32.5677 94.3293C31.5755 93.7983 31.6116 94.0078 32.6576 94.8511C35.5936 97.2181 39.6416 97.932 44.4729 96.935L44.4729 96.935ZM33.3694 88.3509C34.3717 88.1853 34.252 87.7487 33.2019 87.7398C32.1991 87.7308 29.7283 86.2847 28.2445 84.8373C26.875 83.5013 26.4826 83.2743 24.8534 82.875C23.5169 82.5475 22.537 82.4721 21.285 82.6004C19.2771 82.8061 18.182 83.2557 19.6479 83.2725C21.1658 83.2899 23.0624 84.3591 24.4403 85.9741C26.0255 87.8321 27.575 88.4904 30.3992 88.5059C31.4808 88.5119 32.8175 88.4421 33.3694 88.3509V88.3509ZM37.1427 85.9084C38.1859 85.2724 39.7367 82.9804 40.2762 81.2773C40.5522 80.4061 40.7495 78.1663 40.8969 74.2311C41.0662 69.7125 41.2276 68.0643 41.6418 66.6266C42.5264 63.5555 42.9485 62.5458 43.9043 61.2155L44.8207 59.9398H44.0722C42.8078 59.9398 40.9572 61.609 38.403 65.0532C38.0677 65.5054 38.0696 65.4101 38.4168 64.3617C39.1129 62.26 40.3985 60.3999 41.8076 59.4558L43.1171 58.5785L41.806 58.7631C41.0849 58.8646 40.2372 59.1095 39.9223 59.3073C37.854 60.606 36.7411 64.3338 35.6425 73.6436C35.3491 76.1301 34.9402 78.8023 34.7338 79.5818C34.2377 81.4557 33.1759 82.7169 31.3121 83.6461L29.7846 84.4076L30.4802 85.0059C31.0378 85.4855 31.3256 85.5613 31.9309 85.3877C33.0178 85.076 33.7914 84.6392 35.0323 83.6366C37.0829 81.9797 37.5645 80.6529 38.6499 73.6688C39.209 70.0707 40.4806 65.2138 40.7841 65.5173C40.8395 65.5727 40.6614 66.6709 40.3884 67.9578C40.1154 69.2448 39.755 71.978 39.5875 74.0318C39.2958 77.6079 38.7627 80.2021 37.8941 82.2723C37.4501 83.3304 35.8604 84.743 34.1359 85.6117C33.5229 85.9205 33.0214 86.2297 33.0214 86.2989C33.0214 86.3681 33.7589 86.4242 34.6603 86.4237C35.8255 86.4229 36.543 86.2741 37.1427 85.9084H37.1427ZM28.9742 82.6468C29.1563 81.9215 28.7078 80.9179 28.2016 80.9179C28.0127 80.9179 27.6435 81.1552 27.3811 81.4451C26.9179 81.9569 26.9218 81.9913 27.5172 82.6251C28.2901 83.4478 28.7714 83.455 28.9742 82.6468V82.6468ZM29.9269 78.7926C30.4868 78.1004 30.7311 77.4627 30.8398 76.4101C30.9911 74.9438 30.6249 73.7188 30.0887 73.8976C29.737 74.0148 27.9923 79.3189 28.1967 79.6496C28.4707 80.093 29.1456 79.7587 29.9269 78.7926V78.7926ZM52.569 71.1499C52.578 65.309 52.6917 62.6669 53.0465 60.0709C53.4547 57.0835 54.7232 50.4143 55.2036 48.7296C55.3499 48.2166 55.2737 48.1388 54.6201 48.1334C54.2067 48.1304 53.1604 47.8355 52.2951 47.479C51.4297 47.1226 50.6473 46.8303 50.5564 46.8297C50.4654 46.8289 50.2499 48.215 50.0773 49.9096C49.9048 51.6043 49.7362 53.2268 49.7028 53.5153C49.6694 53.8037 49.5452 53.0957 49.4267 51.9419C49.3083 50.7881 49.1321 49.3131 49.0352 48.664L48.859 47.484L48.5448 49.527C48.1513 52.0856 48.1396 57.0831 48.5206 59.914C48.6801 61.0994 48.7585 62.1214 48.6949 62.1851C48.6311 62.2488 48.3093 61.2092 47.9795 59.8748C47.4686 57.8069 47.3602 56.5262 47.2456 51.2009L47.1112 44.9531L46.4737 44.7108C46.1232 44.5775 45.785 44.4684 45.7223 44.4684C45.4941 44.4684 45.6197 55.6772 45.8736 57.9731C46.6556 65.045 47.9066 69.5537 50.621 75.0834C51.6298 77.1386 52.4782 78.8201 52.5062 78.8201C52.5343 78.82 52.5625 75.3685 52.5689 71.1499H52.569ZM48.7757 62.9335C48.7883 62.6281 48.8504 62.5659 48.9341 62.7751C49.0099 62.9644 49.0005 63.1906 48.9134 63.2777C48.8263 63.3648 48.7643 63.2099 48.7757 62.9335V62.9335ZM31.8979 70.9499C32.8745 68.5394 32.5926 65.2051 31.3927 64.974C31.0825 64.9142 30.8767 65.1779 30.6778 65.8895C30.2977 67.2493 30.0239 70.9917 30.2411 71.8572C30.5219 72.976 31.2354 72.5853 31.8979 70.9499ZM24.2285 65.6856C23.3896 61.5893 23.0724 56.5701 23.0637 47.2573L23.0568 39.9504L22.3495 38.6509C21.7349 37.5218 20.8318 36.6393 20.566 36.9082C20.2707 37.207 19.8675 46.0355 19.9931 49.4507L20.1427 53.5153L19.5061 51.0241C19.0936 49.4095 18.7156 46.6876 18.4319 43.2884C18.1911 40.4039 17.9092 37.9468 17.8055 37.8282C17.7018 37.7096 17.4664 38.9629 17.2824 40.6134C16.8791 44.2318 17.0789 50.9446 17.66 53.3002C17.8799 54.1915 18.2296 55.7256 18.4372 56.7092C18.8599 58.7125 20.3874 62.1901 21.8404 64.4572C22.3698 65.2831 22.9192 66.2647 23.0613 66.6385C23.3478 67.3922 24.6485 69.1868 24.7991 69.0362C24.8518 68.9835 24.595 67.4757 24.2284 65.6856H24.2285ZM58.8507 64.6909L59.8996 64.4899L58.7196 64.1601C57.7651 63.8934 56.3274 63.2696 53.9641 62.0966C53.7283 61.9796 53.5428 63.8207 53.7557 64.1651C54.1414 64.7892 56.8688 65.0707 58.8507 64.6909V64.6909ZM31.9725 63.8788C32.2784 63.6854 32.3659 63.0596 32.3659 61.0638C32.3659 58.2203 31.9542 56.9242 31.0512 56.9242C30.6364 56.9242 30.5402 57.0845 30.5789 57.7109C30.6056 58.1435 30.6844 59.7366 30.754 61.2509C30.8236 62.7653 30.8902 64.0338 30.9021 64.0699C30.953 64.2248 31.6109 64.1074 31.9725 63.8788V63.8788ZM73.0011 55.8826C73.6404 54.4631 74.4235 52.3173 74.7414 51.114C75.0592 49.9108 75.4275 48.9263 75.5598 48.9263C75.6947 48.9263 75.7636 50.021 75.7168 51.418C75.6394 53.7251 75.8182 54.4944 76.2003 53.4986C76.2868 53.2731 76.8721 52.3215 77.5008 51.3839C78.1308 50.4444 78.8712 48.8921 79.1501 47.926C79.8236 45.593 80.0185 44.4013 79.6938 44.602C79.5517 44.6898 79.4355 44.8804 79.4355 45.0255C79.4355 45.48 77.7049 49.0267 77.1632 49.6824L76.6468 50.3075L76.839 48.7646C76.9447 47.9161 77.0412 46.7111 77.0533 46.0869L77.0754 44.952L75.9896 45.8814C75.3925 46.3926 74.3184 47.0053 73.6028 47.243C72.3939 47.6445 72.312 47.7261 72.4458 48.395C73.0392 51.362 72.8801 53.5407 71.8164 57.0174C71.5359 57.934 71.3065 58.7541 71.3065 58.8399C71.3065 59.3255 71.9793 58.1514 73.0011 55.8826H73.0011ZM30.856 53.9389C30.6869 52.6782 29.7316 50.7434 28.4371 49.0399C27.3358 47.5906 26.8704 47.2422 26.3187 47.4539C25.7696 47.6646 25.8553 48.258 26.5567 49.1028C26.8952 49.5105 27.7357 50.9061 28.4245 52.2041C29.1134 53.5021 29.7284 54.6527 29.7913 54.7608C29.8543 54.869 30.1502 54.9575 30.4492 54.9575C30.9292 54.9575 30.9767 54.8385 30.856 53.9389V53.9389ZM33.6878 48.0085C32.7765 44.4016 31.6878 42.35 29.5393 40.1906C28.0887 38.7327 27.6307 38.419 27.0504 38.4861C26.6407 38.5335 26.3042 38.7528 26.2567 39.0033C26.1651 39.4867 28.0029 42.3167 29.7206 44.3373C31.5331 46.4696 32.6569 48.1636 33.4528 49.9635C34.4422 52.2008 34.5405 51.3833 33.6878 48.0085V48.0085ZM96.6373 33.1119C96.1204 31.3341 95.3248 30.1603 93.8999 29.0735C92.5905 28.0747 91.5904 27.7508 91.1565 28.1847C90.9272 28.414 91.3365 28.9285 92.8371 30.2977C93.9281 31.2932 95.2827 32.834 95.8472 33.7218C96.9939 35.5252 97.2756 35.3077 96.6373 33.1119V33.1119ZM66.7916 28.0497C68.5835 26.9996 70.4118 25.1893 71.0911 23.7925C71.5801 22.7871 71.6858 22.1261 71.6921 20.0352C71.6991 17.8779 71.6188 17.3871 71.1584 16.7574C70.4038 15.7251 68.8281 15.0125 67.0083 14.8805C65.4919 14.7705 65.4663 14.7799 65.6146 15.3926C66.6043 19.4818 65.6869 23.9437 63.3294 26.5059L62.3643 27.5548L62.5213 26.097C62.771 23.7779 61.5396 18.7702 60.7195 18.7702C60.149 18.7702 58.697 19.9863 58.5394 20.596C58.4476 20.9512 58.5079 21.8872 58.6733 22.6759C58.8388 23.4646 58.9255 24.1585 58.8662 24.2178C58.6431 24.4409 57.9179 22.6668 57.7593 21.5101C57.6163 20.4667 57.5448 20.3571 57.2191 20.6828C56.7462 21.1557 56.5023 22.902 56.7354 24.1449C57.0534 25.8399 59.4323 27.8785 62.1286 28.7666C63.3023 29.1532 65.4799 28.8184 66.7916 28.0497V28.0497ZM66.5566 25.9159C68.0949 24.0915 68.7425 22.4274 68.929 19.8191L69.0885 17.5902L69.4444 18.998C69.8625 20.6516 69.7103 23.0533 69.1144 24.2057C68.7106 24.9866 66.235 27.1615 65.7499 27.1615C65.6159 27.1615 65.9789 26.601 66.5566 25.9159V25.9159ZM70.0739 28.3011C71.1037 27.7688 73.2524 26.1916 74.3522 25.1606C77.5736 22.141 77.4449 15.0933 74.131 13.0452C72.7261 12.1769 71.403 12.0852 69.6676 12.7359C68.8383 13.0468 68.1598 13.3928 68.1598 13.5047C68.1598 13.6167 68.6324 13.9214 69.2101 14.1819C74.0838 16.3796 74.3543 22.7473 69.7755 27.4893C68.5293 28.7799 68.628 29.0484 70.0739 28.3011V28.3011ZM91.1936 25.9691C91.6498 24.9679 91.5652 23.58 90.9149 21.3925L90.3302 19.4258L90.1425 20.4747C89.9018 21.8196 89.8701 26.2329 90.0994 26.4622C90.4551 26.8179 90.8977 26.6184 91.1936 25.9691H91.1936ZM63.5559 18.7119C63.9854 18.0987 64.1027 17.0512 63.7651 16.8426C63.6557 16.775 63.1727 17.0711 62.6919 17.5007C61.8514 18.2517 61.8354 18.3014 62.276 18.7883C62.863 19.4369 63.0562 19.4254 63.5559 18.7119V18.7119ZM21.8001 18.2317C22.5743 17.4575 22.5965 17.37 22.4691 15.5907C22.3967 14.5785 22.2209 13.6338 22.0784 13.4913C21.7786 13.1915 17.7666 16.0982 17.1216 17.0825C16.2591 18.3988 16.9792 18.9572 19.6025 19.0063C20.828 19.0292 21.0976 18.9343 21.8001 18.2317ZM45.8705 17.9836C46.159 17.6951 46.395 17.1402 46.395 16.7505C46.395 16.3089 46.7102 15.7166 47.2312 15.1791C48.0667 14.317 48.067 14.3157 47.632 13.4035C47.2156 12.5301 47.0483 12.4362 45.3096 12.0998C45.0731 12.054 43.5981 12.2324 42.0317 12.496C38.7521 13.0481 36.7357 13.1259 39.3902 12.598C40.3692 12.4033 41.8442 11.9343 42.6681 11.5557C44.74 10.6037 46.2471 10.4704 48.4581 11.0439C50.2224 11.5015 50.3232 11.5011 51.5507 11.033C52.8731 10.5287 55.5734 8.91788 55.8824 8.44898C56.1874 7.98616 55.5736 7.20612 54.5684 6.77909C53.4817 6.31743 50.172 6.20776 46.0016 6.49524C44.5571 6.59482 43.7916 6.58121 44.2972 6.46493C45.7114 6.13968 49.3218 5.6958 53.0818 5.38492C55.1134 5.21694 56.627 4.96929 56.8281 4.77198C57.4523 4.15953 56.8552 3.59899 54.83 2.89582C50.9414 1.5457 45.2865 1.75181 42.254 3.3542C40.2207 4.42859 39.7756 4.85881 39.9194 5.61103C40.0309 6.19415 39.9784 6.22369 39.0866 6.07973C34.8511 5.39598 33.0169 5.65304 31.738 7.10963C30.2764 8.77431 30.32 10.1974 31.8579 11.0253C33.1167 11.703 32.7584 11.7775 30.3924 11.3302C28.1961 10.9148 27.7116 11.0202 26.1579 12.2507C24.3921 13.6493 23.8297 15.6874 24.8588 16.9583C25.3471 17.5613 25.3856 17.5647 32.1356 17.6082C37.0256 17.6397 39.4344 17.7616 40.7571 18.0446C43.5353 18.6389 45.2355 18.6186 45.8705 17.9836V17.9836ZM20.7566 11.7591C21.4384 11.2341 21.9695 10.7841 21.9366 10.7592C21.9037 10.7342 20.8451 10.7713 19.584 10.8414L17.2913 10.969L16.3718 12.807C15.8056 13.9387 15.4522 15.027 15.4522 15.6389V16.6326L17.4845 14.6732C18.6022 13.5955 20.0747 12.2842 20.7566 11.7591ZM28.9101 6.54785C29.7498 6.05893 30.5026 5.65891 30.5831 5.65891C30.922 5.65891 34.8601 2.87468 34.9882 2.54451C35.3045 1.72943 34.5512 1.39068 32.7652 1.54483C30.4271 1.74664 28.7176 2.43316 27.2265 3.76918C23.567 7.0481 24.7365 8.97821 28.9101 6.54785V6.54785Z" fill="#84CC16"/>
</svg>
