<svg width="110" height="120" viewBox="0 0 110 120" fill="none" xmlns="http://www.w3.org/2000/svg">
<rect width="110" height="120" rx="23" fill="#84CC16"/>
<path d="M13.9903 114.866C13.811 114.374 12.3842 112.401 12.0122 112.131C11.9059 112.054 11.2772 110.848 10.6153 109.45C9.78207 107.691 9.30827 106.259 9.07544 104.796C8.51316 101.262 7.90957 101.448 7.24158 105.359C7.03561 106.565 6.78132 108.673 6.67648 110.043C6.4558 112.927 6.31931 112.756 5.5159 108.593C4.50355 103.347 4.94937 99.761 7.13507 95.5692C7.86413 94.171 8.62172 92.9651 8.81858 92.8896C9.01544 92.8141 9.17651 92.5741 9.17651 92.3563C9.17651 91.9625 12.1436 88.8354 13.8966 87.3816C14.4014 86.963 15.8174 86.1379 17.0433 85.548L19.2722 84.4757L22.8123 84.4847C26.049 84.4927 26.5209 84.5573 28.319 85.2363C31.2927 86.3591 31.1759 86.4045 32.1779 83.7361C32.6556 82.4641 33.161 80.694 33.3011 79.8027C33.4412 78.9114 33.6686 77.6395 33.8066 76.9762C33.9445 76.313 34.1927 74.5135 34.3581 72.9773C34.6873 69.9196 34.3917 65.676 33.6808 63.2532C33.4721 62.542 33.3013 61.6726 33.3013 61.3212C33.3013 60.596 31.3633 56.1287 30.75 55.4402C30.5282 55.1912 30.2564 55.0433 30.146 55.1116C30.0356 55.1797 29.8598 56.7178 29.7553 58.5294C29.5245 62.5323 29.9322 68.453 30.8052 73.7738C31.1541 75.9003 31.4032 77.6766 31.3586 77.7212C31.2525 77.8273 29.6777 75.876 28.6621 74.3799C26.1453 70.6727 24.4152 67.4239 23.3554 64.4153C21.2284 58.3767 20.6816 56.3379 19.5119 50.0843C19.445 49.7264 18.8659 49.2151 17.9282 48.6859C16.473 47.8646 13.8966 45.668 13.8966 45.2485C13.8966 45.1304 13.6098 44.6113 13.2594 44.0948C12.4281 42.8699 11.3519 39.5259 11.1489 37.5371C10.9552 35.64 11.5446 32.0186 12.2716 30.6386C13.763 27.8078 14.2144 27.0276 14.6252 26.5709C15.3421 25.7741 17.086 24.6615 18.174 24.3068C19.3962 23.9085 19.7429 23.1643 19.6817 21.0713C19.6261 19.1717 20.4673 17.2014 21.8896 15.8994C22.4387 15.3968 23.102 14.784 23.3637 14.5376C23.6253 14.2912 24.3268 13.8409 24.9224 13.5371C25.518 13.2332 26.9684 12.0156 28.1455 10.8312C30.167 8.79724 32.0854 7.50797 34.6125 6.48507C35.2868 6.21213 36.9563 6.10248 40.9059 6.07175C45.1187 6.03898 46.7637 5.92192 48.5105 5.53063C51.641 4.82937 58.8964 4.82157 61.3596 5.5168C62.297 5.7814 63.5209 6.08936 64.0792 6.20117C64.6376 6.31297 66.1716 6.95703 67.4882 7.63241C69.8703 8.85439 69.8996 8.86155 73.4988 9.10081C77.9622 9.39752 79.9619 9.70551 82.9933 10.5631C87.1994 11.7531 89.0846 12.8769 91.3033 15.5168C92.7031 17.1823 95.7113 22.7097 95.7113 23.6163C95.7113 24.7654 99.8107 32.1003 101.879 34.6526C102.865 35.8691 103.822 37.7184 104.525 39.766C104.905 40.8736 105.015 41.9079 104.998 44.2238C104.979 46.9105 104.882 47.5193 104.11 49.8051C103.633 51.2163 102.619 53.4275 101.856 54.719C101.093 56.0105 100.398 57.2881 100.313 57.5581C100.119 58.1695 94.2939 63.8909 93.8655 63.8909C93.5794 63.8909 91.0357 65.6107 90.7289 66.0116C90.6568 66.1059 89.6538 66.787 88.5 67.5253C87.3462 68.2636 86.2842 68.9604 86.14 69.0737C85.9957 69.187 85.1602 69.8288 84.2831 70.4999C82.2061 72.0893 79.2801 74.9226 77.83 76.7488C76.63 78.26 73.8113 83.1318 72.8751 85.313C72.5775 86.0062 71.6224 88.6975 70.7527 91.2935C69.1896 95.9591 66.7251 101.401 65.5207 102.846C62.2185 106.807 58.4305 109.835 55.0649 111.203C53.0961 112.003 47.2386 113.191 45.2965 113.185C44.5403 113.182 43.0955 112.995 42.0859 112.768C41.0764 112.541 39.8297 112.268 39.3155 112.161C38.1222 111.913 35.1193 109.953 33.4564 108.338C31.6404 106.574 30.5046 104.775 29.8543 102.634C29.3784 101.067 29.3184 100.406 29.4582 98.2695C29.5489 96.8845 29.7862 95.0728 29.9855 94.2436C30.1849 93.4143 30.275 92.7332 30.1858 92.73C30.0966 92.727 29.3523 92.0948 28.532 91.3254C25.2443 88.2418 23.1089 88.1672 19.7172 91.0175C17.9502 92.5026 16.104 94.6958 14.9217 96.7146C13.7667 98.687 12.8451 102.556 12.8511 105.407C12.8551 107.248 13.7019 112.883 14.1705 114.186C14.3416 114.662 14.4118 115.122 14.3264 115.207C14.241 115.292 14.0898 115.139 13.9903 114.866V114.866ZM50.8475 110.771C51.6484 110.374 52.0779 109.981 52.1325 109.598C52.2077 109.07 52.3202 109.035 53.5074 109.176C54.3965 109.281 55.1537 109.194 55.9319 108.897C57.1661 108.425 59.2618 106.582 59.2618 105.968C59.2618 105.715 59.535 105.585 60.0657 105.585C60.5078 105.585 61.0889 105.468 61.3569 105.324C62.1773 104.885 64.4188 101.274 64.764 99.8349C65.0192 98.7712 65.2499 98.4049 65.8654 98.0866C67.0604 97.4687 67.9095 95.4073 67.9127 93.1163L67.9157 91.2678L68.8576 90.9272C70.0284 90.5038 70.5379 89.4101 70.5379 87.3199C70.5379 86.152 70.6611 85.6895 71.0953 85.2273C71.4705 84.8279 71.6633 84.2623 71.6853 83.4966C71.7103 82.6267 71.9201 82.1147 72.5775 81.3196C73.7534 79.8974 74.7335 77.8598 74.7335 76.8373C74.7335 76.2267 74.8767 75.9432 75.2439 75.8266C75.7978 75.6508 78.2239 72.2545 78.8274 70.81C79.0325 70.3192 79.1264 69.6237 79.0363 69.2643C78.8812 68.6465 78.9316 68.611 79.9623 68.611C80.9598 68.611 81.207 68.4572 82.8752 66.7989C84.1951 65.4868 84.6981 64.7994 84.6981 64.3077C84.6981 63.7911 84.8308 63.6287 85.253 63.6287C85.9251 63.6287 88.0188 62.1304 89.1551 60.8363C89.7348 60.176 89.9404 59.722 89.8403 59.3233C89.7102 58.805 89.7816 58.7635 90.6326 58.8628C91.4804 58.9618 91.7143 58.8281 93.135 57.4325C95.285 55.3205 96.0051 54.0276 96.169 51.9849C96.2434 51.058 96.1823 50.1124 96.0304 49.841C95.8062 49.4404 95.8903 49.2754 96.5113 48.8978C98.2926 47.8145 99.0817 44.1359 97.8207 42.7936C97.0133 41.9342 96.3215 41.9493 95.3675 42.8472L94.6014 43.5684L95.2006 42.3883C96.0454 40.7247 96.0605 37.6391 95.2304 36.296C93.7119 33.839 88.9145 33.9893 87.6324 36.5341C87.3544 37.0858 87.0408 38.1271 86.9354 38.8483L86.7438 40.1594L86.2334 39.1649C85.1991 37.1496 82.6032 36.5291 80.2456 37.7338C78.4899 38.6309 78.0042 39.466 78.0473 41.5128C78.0671 42.4522 77.9987 43.1221 77.8955 43.0013C77.7921 42.8805 77.2647 42.2267 76.7235 41.5484C75.603 40.1443 74.0544 39.1461 72.3181 38.7089C71.3487 38.4648 70.8205 38.4866 69.4992 38.8251C67.5059 39.3357 67.5111 39.3357 67.9275 38.834C68.9171 37.6416 70.5838 37.3436 74.1517 37.7213C77.3847 38.0635 77.3809 38.0641 81.4202 36.6221C84.0073 35.6985 84.9603 35.0148 84.9603 34.0825C84.9603 33.2967 85.1115 33.3143 85.8628 34.1878C86.7939 35.2702 88.3115 35.1967 89.5359 34.01C90.0426 33.5189 90.5933 32.7046 90.7597 32.2004C91.0622 31.2838 90.9425 27.8181 90.5722 26.7739C90.4722 26.492 90.8299 26.7629 91.367 27.3759C93.0343 29.2787 93.876 28.7311 93.876 25.7437C93.876 23.6341 93.3112 22.395 91.7217 21.0172L90.5982 20.0433L91.4765 20.2289C92.3082 20.4046 92.3447 20.3817 92.1644 19.7979C91.6332 18.0781 90.4192 16.5977 89.0906 16.0497C88.6217 15.8563 87.4121 15.5472 86.4025 15.3628L84.567 15.0275L84.6524 13.9577C84.725 13.0479 84.6177 12.7732 83.9347 12.121C82.8749 11.1091 81.5915 10.6695 79.1433 10.4801C77.4048 10.3455 77.0029 10.3983 76.2121 10.8649C75.3578 11.369 75.2115 11.3803 74.055 11.0323C72.4416 10.5467 70.707 10.5591 68.9919 11.0684C67.8312 11.4131 67.5533 11.6209 67.2353 12.3819C66.8731 13.2488 66.8146 13.2791 65.8119 13.1187C64.2466 12.8684 62.623 13.4338 61.384 14.6605C60.3827 15.6519 60.3109 15.821 60.3107 17.1899L60.3104 18.6568L58.9322 18.6695C56.1879 18.6947 52.4442 21.3595 52.4442 23.2877C52.4442 25.0841 56.6139 26.3702 59.6121 25.4986C61.5147 24.9455 62.0274 24.1108 61.7763 21.9745L61.6069 20.5336L62.1621 21.2394C63.2164 22.5796 65.3988 23.174 66.4003 22.3936C67.4908 21.5439 67.9135 20.2962 67.9145 17.9247L67.9155 15.6192L68.9049 16.6592C69.449 17.2312 70.2267 17.7826 70.6331 17.8846C71.6899 18.1499 73.1428 17.6353 74.4175 16.5442C75.3734 15.726 75.523 15.4548 75.5422 14.5064L75.5643 13.4123L76.0635 14.4969C76.6981 15.8754 78.102 17.1129 79.4402 17.4733C80.4894 17.7558 81.6952 17.6182 81.9626 17.1856C82.262 16.7011 82.6175 16.9545 82.3472 17.4596C82.1978 17.7386 82.0757 18.2824 82.0757 18.6681C82.0757 19.5753 84.0504 21.44 85.9366 22.3137C86.8095 22.7181 87.4988 23.2638 87.8368 23.8182C88.6384 25.133 88.4964 25.4142 87.4049 24.6735C86.8746 24.3137 86.1563 23.9478 85.8087 23.8606C84.9904 23.6552 83.9805 24.401 83.2991 25.7142L82.782 26.7106L83.6089 28.7329C84.6704 31.3293 84.6853 31.8463 83.6692 30.8302C82.6923 29.8533 81.3897 29.7951 80.3257 30.6807C79.918 31.0201 78.5225 32.0409 77.2244 32.9492C75.9264 33.8575 74.7816 34.6714 74.6804 34.7578C74.5792 34.8442 75.1102 34.8732 75.8604 34.8222C77.6494 34.7007 77.3316 34.9684 74.9536 35.586C70.1079 36.8445 65.5636 35.6405 62.886 32.3887C61.4409 30.6337 59.2089 28.5073 57.8197 27.562C55.8228 26.2032 53.7689 25.5974 50.5611 25.421L47.7603 25.2669L46.9767 26.0505C46.04 26.9872 45.5364 28.6544 45.7832 30.002C45.9624 30.9812 45.9623 30.9813 45.4123 30.4921C45.1097 30.223 44.5569 29.2042 44.1839 28.2281C43.2642 25.8212 42.8329 25.4747 40.7568 25.4747C39.6212 25.4747 38.9632 25.6007 38.6943 25.8696C38.4771 26.0868 37.8881 27.4438 37.3853 28.8852L36.4712 31.5059L36.4597 28.4438C36.4485 25.4542 36.4318 25.3688 35.7573 24.8382C34.7935 24.08 33.0836 24.1266 31.2365 24.9612C29.7002 25.6553 28.5556 26.9175 28.2248 28.2821C28.1302 28.6723 27.9191 29.3213 27.7558 29.7243L27.4589 30.457L27.2596 29.8014C27.15 29.4409 27.0486 28.6116 27.0342 27.9586C26.9977 26.3038 26.4917 25.7039 24.8157 25.3289C22.1053 24.7223 20.0505 26.1202 17.9237 30.0175C17.2686 31.218 16.6807 32.1484 16.6172 32.0849C16.5538 32.0215 16.9311 30.714 17.4557 29.1794C17.9802 27.6448 18.3418 26.213 18.2591 25.9975C17.9547 25.2041 16.8238 25.5515 15.9974 26.6924C13.8987 29.5895 13.1069 32.8568 13.6324 36.4508C14.0604 39.3782 14.3247 39.7882 16.7189 41.2398C18.0007 42.017 18.6168 41.9168 18.6168 40.931V40.2439L19.4236 40.9228C20.3615 41.7119 20.9438 41.7661 22.1043 41.172C23.7469 40.3311 25.3206 38.7527 26.484 36.7792C27.131 35.6817 27.7442 34.7837 27.8468 34.7837C27.9493 34.7837 28.1092 35.1892 28.2022 35.6847C28.2952 36.1803 28.7852 37.0694 29.2912 37.6605C30.5382 39.1174 31.965 39.8144 33.4951 39.7142L34.7048 39.6349L35.0037 38.1318C35.3699 36.2899 35.5627 36.063 35.9333 37.0379C36.5963 38.7817 37.0981 39.5703 38.0787 40.4096C39.4104 41.5496 41.1829 41.9839 43.6518 41.7752L45.5349 41.616L45.9768 43.0179C46.3019 44.0492 46.7562 44.7355 47.6949 45.6136C50.4045 48.1481 54.8772 49.6436 56.5229 48.5653C56.9006 48.3178 57.2336 48.1543 57.2629 48.2019C57.2922 48.2494 57.4306 48.6374 57.5704 49.064C58.0785 50.6148 62.3258 52.7441 65.4994 53.0391C69.5238 53.4131 70.1134 52.5524 68.8296 48.1772C68.4731 46.9623 68.2237 45.9259 68.2754 45.8742C68.3271 45.8225 68.6337 46.4866 68.9566 47.35C69.3844 48.4939 69.9179 49.2738 70.9232 50.2245C72.4132 51.6337 73.5076 52.0183 75.1501 51.7102C76.3306 51.4887 78.274 49.7404 78.6685 48.545L78.9593 47.6638L80.1897 48.3195C82.2121 49.3974 83.7716 48.8664 86.3044 46.2377L87.8657 44.6172L87.0687 46.3217C85.2419 50.2282 86.8433 51.8227 90.7886 50.0255C91.4611 49.7191 92.0882 49.4684 92.182 49.4684C92.2759 49.4684 92.6953 49.2243 93.1142 48.9261C94.5543 47.9006 93.8736 48.6611 92.0464 50.119C90.9098 51.0259 89.4947 51.8539 88.3097 52.3055C86.0114 53.1814 85.5 53.8769 86.0993 55.3113C86.3329 55.8704 86.7725 56.3217 87.294 56.5377L88.1189 56.8794L86.4423 57.4436C84.4656 58.1089 82.9307 59.2001 82.7046 60.1011C82.6156 60.4556 82.5876 61.1288 82.6423 61.5971C82.7397 62.4316 82.7206 62.4488 81.6875 62.4586C80.4522 62.4703 79.1051 63.0727 77.9449 64.1325C76.9724 65.0206 76.644 66.0599 77.0206 67.0576C77.2698 67.7179 77.2339 67.783 76.5444 67.9209C74.7635 68.2771 72.6153 71.7224 72.9939 73.6152C73.1204 74.248 73.0598 74.3799 72.6423 74.3799C71.4804 74.3799 69.8228 77.9328 70.0822 79.8671C70.1992 80.7395 70.1339 80.9158 69.6049 81.1569C69.2678 81.3105 68.7949 81.737 68.554 82.1047C68.1789 82.6772 68.1601 82.9488 68.4232 83.9936C68.7523 85.3005 68.5769 85.6431 67.5742 85.6516C66.7937 85.6586 66.2695 87.3102 66.478 89.1062C66.6329 90.4408 66.5986 90.638 66.2116 90.638C65.542 90.638 64.2884 91.6275 63.8265 92.5208C63.5389 93.077 63.4423 93.8531 63.5026 95.123C63.5499 96.1183 63.5668 96.9323 63.5402 96.932C63.5135 96.9317 63.1722 96.8099 62.7816 96.6614C62.1335 96.415 61.9728 96.4944 60.9417 97.5705C59.7305 98.8346 58.9998 100.684 58.9998 102.486C58.9998 103.589 58.9093 103.642 57.9509 103.094C57.5903 102.888 56.79 102.715 56.1724 102.71C53.9978 102.692 52.3773 103.883 52.0254 105.759L51.8551 106.666L51.3854 105.894C49.9817 103.586 47.5043 103.821 45.6056 106.442C44.9581 107.336 44.8258 107.416 44.6916 106.995C44.2567 105.631 43.9669 105.288 42.7156 104.654C41.9693 104.276 40.7335 103.902 39.9694 103.823C38.6689 103.689 38.5332 103.731 37.8412 104.489L37.102 105.298L37.1958 104.119C37.3693 101.938 36.5599 100.902 34.2202 100.313C33.0848 100.027 33.0036 99.9525 33.142 99.32C33.2242 98.9437 33.364 97.7509 33.4526 96.6692C33.5747 95.1772 33.5236 94.5839 33.2409 94.2114C32.6966 93.4941 31.8043 93.8818 31.3173 95.0471C30.2589 97.5804 30.3314 99.7331 31.4962 100.357C31.9053 100.575 31.9763 100.805 31.8476 101.491C31.7282 102.127 31.9032 102.867 32.5223 104.342C33.5895 106.884 34.2578 107.531 35.8482 107.561C36.7906 107.579 37.0972 107.695 37.2448 108.092C37.8148 109.625 40.575 111.202 42.7091 111.214C43.8508 111.221 44.1747 111.123 44.4135 110.698C44.5757 110.41 44.7392 110.123 44.7767 110.062C44.8143 110 45.1683 110.251 45.5634 110.619C45.9585 110.987 46.4588 111.36 46.6751 111.446C47.3977 111.737 49.6311 111.375 50.8477 110.771L50.8475 110.771ZM57.469 42.3708C56.8882 40.2007 56.002 38.6503 54.5633 37.287C53.8688 36.6289 53.49 36.4962 52.0433 36.4041C50.0965 36.2801 49.0395 36.6198 48.1748 37.6476L47.5874 38.3456L47.5904 35.9098C47.5924 34.5701 47.6788 33.4736 47.7836 33.4733C47.8884 33.473 49.0684 33.8804 50.4058 34.3789C53.5395 35.5468 54.5565 35.7531 58.2122 35.9629C61.5546 36.1546 63.1646 36.6665 64.3645 37.9189L65.0706 38.656L63.5717 37.8999C61.6742 36.9428 59.6912 36.8619 58.6279 37.6983L57.9229 38.2528L58.1052 41.3695C58.2055 43.0836 58.2308 44.4861 58.1615 44.4861C58.0922 44.4861 57.7808 43.5342 57.4694 42.3708H57.469ZM77.5685 34.6046C77.7577 34.5289 77.9839 34.5382 78.0711 34.6253C78.1582 34.7124 78.0033 34.7744 77.7269 34.763C77.4214 34.7505 77.3593 34.6883 77.5685 34.6046V34.6046ZM52.3544 33.9715C50.4013 33.6861 48.7329 32.7787 48.395 31.8178C48.0828 30.9301 48.3455 30.4299 49.5572 29.6048C51.3673 28.3721 54.5894 29.204 56.4574 31.3863C57.8099 32.9664 57.7267 33.2287 56.0495 32.6721C55.2923 32.4208 54.1713 32.1337 53.5583 32.0342C52.5863 31.8763 52.4436 31.9147 52.4415 32.3351C52.4405 32.6002 52.8237 33.1384 53.2938 33.5311C53.7638 33.9239 54.0894 34.234 54.0172 34.2203C53.9451 34.2066 53.1968 34.0946 52.3544 33.9715V33.9715ZM11.7257 106.306C11.7316 103.121 11.8302 102.221 12.3944 100.209C13.2005 97.336 13.8509 95.565 14.6095 94.178C15.2074 93.085 18.5472 89.202 19.3405 88.6776C20.6041 87.8423 24.2541 86.6865 26.1496 86.5215L28.1879 86.344L26.6146 85.8483C23.7044 84.9314 20.6932 85.6351 17.4304 87.9944C16.2318 88.8611 12.3316 93.0563 11.475 94.4002C11.369 94.5665 11.2805 94.5988 11.2783 94.4721C11.2763 94.3454 11.7223 93.5784 12.2697 92.7677C12.8172 91.9569 13.5842 90.7417 13.974 90.0672C14.3639 89.3927 14.9485 88.6197 15.2731 88.3494C15.5977 88.0792 16.2173 87.4652 16.65 86.985L17.4366 86.1119L15.6011 87.2327C14.5915 87.8492 12.7823 89.3502 11.5807 90.5682C9.70267 92.4719 9.19532 93.1938 7.96749 95.7094C6.32641 99.0717 5.49789 102.437 5.53608 105.585L5.55996 107.552L5.9355 106.241C6.76864 103.332 7.34209 101.667 8.01965 100.189L8.73143 98.636L9.05059 101.127C9.37344 103.647 10.1037 106.808 10.4742 107.289C10.5853 107.434 10.8858 108.112 11.142 108.797C11.3982 109.482 11.6329 110.043 11.6635 110.043C11.6941 110.043 11.7221 108.361 11.7257 106.306L11.7257 106.306ZM49.4729 101.935C53.2552 101.154 53.342 100.885 49.8216 100.853C48.163 100.838 46.275 100.731 45.626 100.616C44.5507 100.425 44.6321 100.403 46.5438 100.371C49.1411 100.328 51.6049 99.9409 53.049 99.3489L54.1483 98.8981L52.9683 98.7624L51.7883 98.6267L53.0994 97.9224C54.536 97.1507 54.5786 96.9902 53.1971 97.5553C52.7107 97.7542 51.6048 97.995 50.7394 98.0904C49.8741 98.1857 48.8268 98.3306 48.4122 98.4123C47.9557 98.5023 47.7204 98.4603 47.8158 98.306C47.9024 98.1658 48.7137 97.8943 49.6186 97.7027L51.2639 97.3543L50.215 97.1974L49.1661 97.0405L50.215 96.5805C50.7919 96.3275 51.6769 95.8473 52.1817 95.5134C52.6865 95.1796 54.0196 94.3349 55.1441 93.6364C56.2687 92.9379 57.3307 92.186 57.5042 91.9656C57.7652 91.6339 57.7031 91.6391 57.1437 91.9956C56.7719 92.2325 55.8869 92.6022 55.177 92.8171C54.467 93.032 53.0011 93.5648 51.9195 94.0012C48.8024 95.2585 48.0995 95.326 49.9528 94.1899C51.634 93.1593 52.3726 92.5457 51.6103 92.8129C51.3682 92.8977 50.7191 93.0387 50.1681 93.1259C49.1876 93.2812 49.1802 93.2763 49.8217 92.8988C50.6796 92.3938 54.9791 87.7222 56.1099 86.0662L56.9935 84.7722L55.1776 86.2231C52.9654 87.9905 50.0839 89.9429 50.0839 89.6743C50.0839 89.5662 50.5321 89.0013 51.0799 88.419C51.6277 87.8366 52.2868 86.8881 52.5445 86.3112L53.0131 85.2623L52.1385 86.073C51.0202 87.1095 49.5652 88.1089 49.4061 87.9498C49.3384 87.8821 49.9412 86.5547 50.7455 85L52.208 82.1732L50.3212 83.9201C49.2835 84.8809 48.398 85.6305 48.3534 85.586C48.3088 85.5414 48.6091 84.5063 49.0208 83.2858C49.4324 82.0653 49.8398 80.5947 49.9262 80.0178C50.0483 79.2018 49.9173 79.4056 49.3364 80.9356C48.4229 83.3412 47.4711 84.9935 47.4482 84.2134C47.4403 83.925 47.21 84.5389 46.9377 85.5776C46.6655 86.6164 46.1732 87.9346 45.8438 88.5069C45.2945 89.4614 45.2791 89.5872 45.6578 90.0272C46.5799 91.0984 46.5581 91.2546 45.5104 91.0846C44.5533 90.9293 44.5312 90.9437 44.6992 91.613C44.7941 91.9914 45.1118 92.6054 45.4051 92.9773C46.0764 93.8288 45.6584 93.974 44.0909 93.4339C43.493 93.2279 43.0038 93.1092 43.0038 93.1702C43.0038 93.5309 44.1784 95.483 44.8681 96.2685C45.8241 97.3574 45.4499 97.4614 43.856 96.5501C42.7722 95.9304 42.3361 96.0063 43.1412 96.6744C44.484 97.7888 41.8235 96.6201 39.6122 95.1242C38.9728 94.6916 38.3533 94.3972 38.2355 94.47C37.742 94.775 38.0958 95.5218 39.2379 96.5853C40.5696 97.8254 40.5408 98.0214 39.153 97.1637C38.6597 96.8588 38.1898 96.6756 38.1088 96.7566C38.0278 96.8376 38.565 97.5978 39.3026 98.4458C40.0402 99.2938 40.6437 100.056 40.6437 100.14C40.6437 100.338 38.2963 99.7192 37.5677 99.3293C36.5755 98.7983 36.6116 99.0078 37.6576 99.8511C40.5936 102.218 44.6416 102.932 49.4729 101.935L49.4729 101.935ZM38.3694 93.3509C39.3717 93.1853 39.252 92.7487 38.2019 92.7398C37.1991 92.7308 34.7283 91.2847 33.2445 89.8373C31.875 88.5013 31.4826 88.2743 29.8534 87.875C28.5169 87.5475 27.537 87.4721 26.285 87.6004C24.2771 87.8061 23.182 88.2557 24.6479 88.2725C26.1658 88.2899 28.0624 89.3591 29.4403 90.9741C31.0255 92.8321 32.575 93.4904 35.3992 93.5059C36.4808 93.5119 37.8175 93.4421 38.3694 93.3509V93.3509ZM42.1427 90.9084C43.1859 90.2724 44.7367 87.9804 45.2762 86.2773C45.5522 85.4061 45.7495 83.1663 45.8969 79.2311C46.0662 74.7125 46.2276 73.0643 46.6418 71.6266C47.5264 68.5555 47.9485 67.5458 48.9043 66.2155L49.8207 64.9398H49.0722C47.8078 64.9398 45.9572 66.609 43.403 70.0532C43.0677 70.5054 43.0696 70.4101 43.4168 69.3617C44.1129 67.26 45.3985 65.3999 46.8076 64.4558L48.1171 63.5785L46.806 63.7631C46.0849 63.8646 45.2372 64.1095 44.9223 64.3073C42.854 65.606 41.7411 69.3338 40.6425 78.6436C40.3491 81.1301 39.9402 83.8023 39.7338 84.5818C39.2377 86.4557 38.1759 87.7169 36.3121 88.6461L34.7846 89.4076L35.4802 90.0059C36.0378 90.4855 36.3256 90.5613 36.9309 90.3877C38.0178 90.076 38.7914 89.6392 40.0323 88.6366C42.0829 86.9797 42.5645 85.6529 43.6499 78.6688C44.209 75.0707 45.4806 70.2138 45.7841 70.5173C45.8395 70.5727 45.6614 71.6709 45.3884 72.9578C45.1154 74.2448 44.755 76.978 44.5875 79.0318C44.2958 82.6079 43.7627 85.2021 42.8941 87.2723C42.4501 88.3304 40.8604 89.743 39.1359 90.6117C38.5229 90.9205 38.0214 91.2297 38.0214 91.2989C38.0214 91.3681 38.7589 91.4242 39.6603 91.4237C40.8255 91.4229 41.543 91.2741 42.1427 90.9084H42.1427ZM33.9742 87.6468C34.1563 86.9215 33.7078 85.9179 33.2016 85.9179C33.0127 85.9179 32.6435 86.1552 32.3811 86.4451C31.9179 86.9569 31.9218 86.9913 32.5172 87.6251C33.2901 88.4478 33.7714 88.455 33.9742 87.6468V87.6468ZM34.9269 83.7926C35.4868 83.1004 35.7311 82.4627 35.8398 81.4101C35.9911 79.9438 35.6249 78.7188 35.0887 78.8976C34.737 79.0148 32.9923 84.3189 33.1967 84.6496C33.4707 85.093 34.1456 84.7587 34.9269 83.7926V83.7926ZM57.569 76.1499C57.578 70.309 57.6917 67.6669 58.0465 65.0709C58.4547 62.0835 59.7232 55.4143 60.2036 53.7296C60.3499 53.2166 60.2737 53.1388 59.6201 53.1334C59.2067 53.1304 58.1604 52.8355 57.2951 52.479C56.4297 52.1226 55.6473 51.8303 55.5564 51.8297C55.4654 51.8289 55.2499 53.215 55.0773 54.9096C54.9048 56.6043 54.7362 58.2268 54.7028 58.5153C54.6694 58.8037 54.5452 58.0957 54.4267 56.9419C54.3083 55.7881 54.1321 54.3131 54.0352 53.664L53.859 52.484L53.5448 54.527C53.1513 57.0856 53.1396 62.0831 53.5206 64.914C53.6801 66.0994 53.7585 67.1214 53.6949 67.1851C53.6311 67.2488 53.3093 66.2092 52.9795 64.8748C52.4686 62.8069 52.3602 61.5262 52.2456 56.2009L52.1112 49.9531L51.4737 49.7108C51.1232 49.5775 50.785 49.4684 50.7223 49.4684C50.4941 49.4684 50.6197 60.6772 50.8736 62.9731C51.6556 70.045 52.9066 74.5537 55.621 80.0834C56.6298 82.1386 57.4782 83.8201 57.5062 83.8201C57.5343 83.82 57.5625 80.3685 57.5689 76.1499H57.569ZM53.7757 67.9335C53.7883 67.6281 53.8504 67.5659 53.9341 67.7751C54.0099 67.9644 54.0005 68.1906 53.9134 68.2777C53.8263 68.3648 53.7643 68.2099 53.7757 67.9335V67.9335ZM36.8979 75.9499C37.8745 73.5394 37.5926 70.2051 36.3927 69.974C36.0825 69.9142 35.8767 70.1779 35.6778 70.8895C35.2977 72.2493 35.0239 75.9917 35.2411 76.8572C35.5219 77.976 36.2354 77.5853 36.8979 75.9499ZM29.2285 70.6856C28.3896 66.5893 28.0724 61.5701 28.0637 52.2573L28.0568 44.9504L27.3495 43.6509C26.7349 42.5218 25.8318 41.6393 25.566 41.9082C25.2707 42.207 24.8675 51.0355 24.9931 54.4507L25.1427 58.5153L24.5061 56.0241C24.0936 54.4095 23.7156 51.6876 23.4319 48.2884C23.1911 45.4039 22.9092 42.9468 22.8055 42.8282C22.7018 42.7096 22.4664 43.9629 22.2824 45.6134C21.8791 49.2318 22.0789 55.9446 22.66 58.3002C22.8799 59.1915 23.2296 60.7256 23.4372 61.7092C23.8599 63.7125 25.3874 67.1901 26.8404 69.4572C27.3698 70.2831 27.9192 71.2647 28.0613 71.6385C28.3478 72.3922 29.6485 74.1868 29.7991 74.0362C29.8518 73.9835 29.595 72.4757 29.2284 70.6856H29.2285ZM63.8507 69.6909L64.8996 69.4899L63.7196 69.1601C62.7651 68.8934 61.3274 68.2696 58.9641 67.0966C58.7283 66.9796 58.5428 68.8207 58.7557 69.1651C59.1414 69.7892 61.8688 70.0707 63.8507 69.6909V69.6909ZM36.9725 68.8788C37.2784 68.6854 37.3659 68.0596 37.3659 66.0638C37.3659 63.2203 36.9542 61.9242 36.0512 61.9242C35.6364 61.9242 35.5402 62.0845 35.5789 62.7109C35.6056 63.1435 35.6844 64.7366 35.754 66.2509C35.8236 67.7653 35.8902 69.0338 35.9021 69.0699C35.953 69.2248 36.6109 69.1074 36.9725 68.8788V68.8788ZM78.0011 60.8826C78.6404 59.4631 79.4235 57.3173 79.7414 56.114C80.0592 54.9108 80.4275 53.9263 80.5598 53.9263C80.6947 53.9263 80.7636 55.021 80.7168 56.418C80.6394 58.7251 80.8182 59.4944 81.2003 58.4986C81.2868 58.2731 81.8721 57.3215 82.5008 56.3839C83.1308 55.4444 83.8712 53.8921 84.1501 52.926C84.8236 50.593 85.0185 49.4013 84.6938 49.602C84.5517 49.6898 84.4355 49.8804 84.4355 50.0255C84.4355 50.48 82.7049 54.0267 82.1632 54.6824L81.6468 55.3075L81.839 53.7646C81.9447 52.9161 82.0412 51.7111 82.0533 51.0869L82.0754 49.952L80.9896 50.8814C80.3925 51.3926 79.3184 52.0053 78.6028 52.243C77.3939 52.6445 77.312 52.7261 77.4458 53.395C78.0392 56.362 77.8801 58.5407 76.8164 62.0174C76.5359 62.934 76.3065 63.7541 76.3065 63.8399C76.3065 64.3255 76.9793 63.1514 78.0011 60.8826H78.0011ZM35.856 58.9389C35.6869 57.6782 34.7316 55.7434 33.4371 54.0399C32.3358 52.5906 31.8704 52.2422 31.3187 52.4539C30.7696 52.6646 30.8553 53.258 31.5567 54.1028C31.8952 54.5105 32.7357 55.9061 33.4245 57.2041C34.1134 58.5021 34.7284 59.6527 34.7913 59.7608C34.8543 59.869 35.1502 59.9575 35.4492 59.9575C35.9292 59.9575 35.9767 59.8385 35.856 58.9389V58.9389ZM38.6878 53.0085C37.7765 49.4016 36.6878 47.35 34.5393 45.1906C33.0887 43.7327 32.6307 43.419 32.0504 43.4861C31.6407 43.5335 31.3042 43.7528 31.2567 44.0033C31.1651 44.4867 33.0029 47.3167 34.7206 49.3373C36.5331 51.4696 37.6569 53.1636 38.4528 54.9635C39.4422 57.2008 39.5405 56.3833 38.6878 53.0085V53.0085ZM101.637 38.1119C101.12 36.3341 100.325 35.1603 98.8999 34.0735C97.5905 33.0747 96.5904 32.7508 96.1565 33.1847C95.9272 33.414 96.3365 33.9285 97.8371 35.2977C98.9281 36.2932 100.283 37.834 100.847 38.7218C101.994 40.5252 102.276 40.3077 101.637 38.1119V38.1119ZM71.7916 33.0497C73.5835 31.9996 75.4118 30.1893 76.0911 28.7925C76.5801 27.7871 76.6858 27.1261 76.6921 25.0352C76.6991 22.8779 76.6188 22.3871 76.1584 21.7574C75.4038 20.7251 73.8281 20.0125 72.0083 19.8805C70.4919 19.7705 70.4663 19.7799 70.6146 20.3926C71.6043 24.4818 70.6869 28.9437 68.3294 31.5059L67.3643 32.5548L67.5213 31.097C67.771 28.7779 66.5396 23.7702 65.7195 23.7702C65.149 23.7702 63.697 24.9863 63.5394 25.596C63.4476 25.9512 63.5079 26.8872 63.6733 27.6759C63.8388 28.4646 63.9255 29.1585 63.8662 29.2178C63.6431 29.4409 62.9179 27.6668 62.7593 26.5101C62.6163 25.4667 62.5448 25.3571 62.2191 25.6828C61.7462 26.1557 61.5023 27.902 61.7354 29.1449C62.0534 30.8399 64.4323 32.8785 67.1286 33.7666C68.3023 34.1532 70.4799 33.8184 71.7916 33.0497V33.0497ZM71.5566 30.9159C73.0949 29.0915 73.7425 27.4274 73.929 24.8191L74.0885 22.5902L74.4444 23.998C74.8625 25.6516 74.7103 28.0533 74.1144 29.2057C73.7106 29.9866 71.235 32.1615 70.7499 32.1615C70.6159 32.1615 70.9789 31.601 71.5566 30.9159V30.9159ZM75.0739 33.3011C76.1037 32.7688 78.2524 31.1916 79.3522 30.1606C82.5736 27.141 82.4449 20.0933 79.131 18.0452C77.7261 17.1769 76.403 17.0852 74.6676 17.7359C73.8383 18.0468 73.1598 18.3928 73.1598 18.5047C73.1598 18.6167 73.6324 18.9214 74.2101 19.1819C79.0838 21.3796 79.3543 27.7473 74.7755 32.4893C73.5293 33.7799 73.628 34.0484 75.0739 33.3011V33.3011ZM96.1936 30.9691C96.6498 29.9679 96.5652 28.58 95.9149 26.3925L95.3302 24.4258L95.1425 25.4747C94.9018 26.8196 94.8701 31.2329 95.0994 31.4622C95.4551 31.8179 95.8977 31.6184 96.1936 30.9691H96.1936ZM68.5559 23.7119C68.9854 23.0987 69.1027 22.0512 68.7651 21.8426C68.6557 21.775 68.1727 22.0711 67.6919 22.5007C66.8514 23.2517 66.8354 23.3014 67.276 23.7883C67.863 24.4369 68.0562 24.4254 68.5559 23.7119V23.7119ZM26.8001 23.2317C27.5743 22.4575 27.5965 22.37 27.4691 20.5907C27.3967 19.5785 27.2209 18.6338 27.0784 18.4913C26.7786 18.1915 22.7666 21.0982 22.1216 22.0825C21.2591 23.3988 21.9792 23.9572 24.6025 24.0063C25.828 24.0292 26.0976 23.9343 26.8001 23.2317ZM50.8705 22.9836C51.159 22.6951 51.395 22.1402 51.395 21.7505C51.395 21.3089 51.7102 20.7166 52.2312 20.1791C53.0667 19.317 53.067 19.3157 52.632 18.4035C52.2156 17.5301 52.0483 17.4362 50.3096 17.0998C50.0731 17.054 48.5981 17.2324 47.0317 17.496C43.7521 18.0481 41.7357 18.1259 44.3902 17.598C45.3692 17.4033 46.8442 16.9343 47.6681 16.5557C49.74 15.6037 51.2471 15.4704 53.4581 16.0439C55.2224 16.5015 55.3232 16.5011 56.5507 16.033C57.8731 15.5287 60.5734 13.9179 60.8824 13.449C61.1874 12.9862 60.5736 12.2061 59.5684 11.7791C58.4817 11.3174 55.172 11.2078 51.0016 11.4952C49.5571 11.5948 48.7916 11.5812 49.2972 11.4649C50.7114 11.1397 54.3218 10.6958 58.0818 10.3849C60.1134 10.2169 61.627 9.96929 61.8281 9.77198C62.4523 9.15953 61.8552 8.59899 59.83 7.89582C55.9414 6.5457 50.2865 6.75181 47.254 8.3542C45.2207 9.42859 44.7756 9.85881 44.9194 10.611C45.0309 11.1941 44.9784 11.2237 44.0866 11.0797C39.8511 10.396 38.0169 10.653 36.738 12.1096C35.2764 13.7743 35.32 15.1974 36.8579 16.0253C38.1167 16.703 37.7584 16.7775 35.3924 16.3302C33.1961 15.9148 32.7116 16.0202 31.1579 17.2507C29.3921 18.6493 28.8297 20.6874 29.8588 21.9583C30.3471 22.5613 30.3856 22.5647 37.1356 22.6082C42.0256 22.6397 44.4344 22.7616 45.7571 23.0446C48.5353 23.6389 50.2355 23.6186 50.8705 22.9836V22.9836ZM25.7566 16.7591C26.4384 16.2341 26.9695 15.7841 26.9366 15.7592C26.9037 15.7342 25.8451 15.7713 24.584 15.8414L22.2913 15.969L21.3718 17.807C20.8056 18.9387 20.4522 20.027 20.4522 20.6389V21.6326L22.4845 19.6732C23.6022 18.5955 25.0747 17.2842 25.7566 16.7591ZM33.9101 11.5479C34.7498 11.0589 35.5026 10.6589 35.5831 10.6589C35.922 10.6589 39.8601 7.87468 39.9882 7.54451C40.3045 6.72943 39.5512 6.39068 37.7652 6.54483C35.4271 6.74664 33.7176 7.43316 32.2265 8.76918C28.567 12.0481 29.7365 13.9782 33.9101 11.5479V11.5479Z" fill="#0C4A6E"/>
</svg>
