<svg width="148" height="16" viewBox="0 0 148 16" fill="none" xmlns="http://www.w3.org/2000/svg">
    <path
        d="M2.312 16H1.232C1.008 16 0.896 15.888 0.896 15.664V0.904C0.896 0.68 1.008 0.568 1.232 0.568H2.312C2.536 0.568 2.648 0.68 2.648 0.904V9.184H2.72C2.832 8.848 3.008 8.52 3.248 8.2L8.624 0.904C8.768 0.68 8.976 0.568 9.248 0.568H10.544C10.816 0.568 10.856 0.688 10.664 0.927999L5.912 7.36L11.336 15.616C11.512 15.872 11.44 16 11.12 16H10.136C9.8 16 9.568 15.888 9.44 15.664L4.832 8.632L2.648 11.248V15.664C2.648 15.888 2.536 16 2.312 16ZM15.8021 14.464H19.8341C21.1781 14.464 21.8501 13.768 21.8501 12.376V4.192C21.8501 2.8 21.1781 2.104 19.8341 2.104H15.8021C15.6421 2.104 15.5621 2.176 15.5621 2.32V14.248C15.5621 14.392 15.6421 14.464 15.8021 14.464ZM13.8101 15.664V0.904C13.8101 0.68 13.9221 0.568 14.1461 0.568H20.0501C21.1541 0.568 22.0181 0.888 22.6421 1.528C23.2821 2.152 23.6021 3.016 23.6021 4.12V12.448C23.6021 13.552 23.2821 14.424 22.6421 15.064C22.0181 15.688 21.1541 16 20.0501 16H14.1461C13.9221 16 13.8101 15.888 13.8101 15.664ZM26.978 12.448V11.68C26.978 11.456 27.09 11.344 27.314 11.344H28.394C28.618 11.344 28.73 11.456 28.73 11.68V12.304C28.73 13.744 29.442 14.464 30.866 14.464H32.978C34.402 14.464 35.114 13.728 35.114 12.256V11.44C35.114 10.288 34.162 9.536 32.258 9.184C31.458 9.04 30.658 8.872 29.858 8.68C29.058 8.488 28.378 8.12 27.818 7.576C27.258 7.016 26.978 6.256 26.978 5.296V4.12C26.978 3.016 27.29 2.152 27.914 1.528C28.554 0.888 29.426 0.568 30.53 0.568H33.194C34.282 0.568 35.146 0.888 35.786 1.528C36.426 2.152 36.746 3.016 36.746 4.12V4.72C36.746 4.96 36.642 5.08 36.434 5.08H35.33C35.122 5.08 35.018 4.96 35.018 4.72V4.288C35.018 2.832 34.306 2.104 32.882 2.104H30.842C29.418 2.104 28.706 2.864 28.706 4.384V5.344C28.706 6.16 29.242 6.72 30.314 7.024C30.794 7.152 31.322 7.272 31.898 7.384C32.474 7.48 33.05 7.616 33.626 7.792C34.218 7.952 34.754 8.16 35.234 8.416C35.714 8.656 36.098 9.032 36.386 9.544C36.69 10.04 36.842 10.648 36.842 11.368V12.448C36.842 13.552 36.522 14.424 35.882 15.064C35.242 15.688 34.378 16 33.29 16H30.53C29.442 16 28.578 15.688 27.938 15.064C27.298 14.424 26.978 13.552 26.978 12.448ZM46.3843 12.448V11.68C46.3843 11.456 46.4963 11.344 46.7203 11.344H47.8003C48.0243 11.344 48.1363 11.456 48.1363 11.68V12.304C48.1363 13.744 48.8483 14.464 50.2723 14.464H52.3843C53.8083 14.464 54.5203 13.728 54.5203 12.256V11.44C54.5203 10.288 53.5683 9.536 51.6643 9.184C50.8643 9.04 50.0643 8.872 49.2643 8.68C48.4643 8.488 47.7843 8.12 47.2243 7.576C46.6643 7.016 46.3843 6.256 46.3843 5.296V4.12C46.3843 3.016 46.6963 2.152 47.3203 1.528C47.9603 0.888 48.8323 0.568 49.9363 0.568H52.6003C53.6883 0.568 54.5523 0.888 55.1923 1.528C55.8323 2.152 56.1523 3.016 56.1523 4.12V4.72C56.1523 4.96 56.0483 5.08 55.8403 5.08H54.7363C54.5283 5.08 54.4243 4.96 54.4243 4.72V4.288C54.4243 2.832 53.7123 2.104 52.2883 2.104H50.2483C48.8243 2.104 48.1123 2.864 48.1123 4.384V5.344C48.1123 6.16 48.6483 6.72 49.7203 7.024C50.2003 7.152 50.7283 7.272 51.3043 7.384C51.8803 7.48 52.4563 7.616 53.0323 7.792C53.6243 7.952 54.1603 8.16 54.6403 8.416C55.1203 8.656 55.5043 9.032 55.7923 9.544C56.0963 10.04 56.2483 10.648 56.2483 11.368V12.448C56.2483 13.552 55.9283 14.424 55.2883 15.064C54.6483 15.688 53.7843 16 52.6963 16H49.9363C48.8483 16 47.9843 15.688 47.3443 15.064C46.7043 14.424 46.3843 13.552 46.3843 12.448ZM63.3688 14.464H65.8168C67.1608 14.464 67.8328 13.768 67.8328 12.376V4.192C67.8328 2.8 67.1608 2.104 65.8168 2.104H63.3688C62.0408 2.104 61.3768 2.8 61.3768 4.192V12.376C61.3768 13.768 62.0408 14.464 63.3688 14.464ZM66.0328 16H63.1768C62.0728 16 61.2008 15.688 60.5608 15.064C59.9368 14.44 59.6248 13.568 59.6248 12.448V4.12C59.6248 3 59.9368 2.128 60.5608 1.504C61.2008 0.88 62.0728 0.568 63.1768 0.568H66.0328C67.1368 0.568 68.0008 0.888 68.6248 1.528C69.2648 2.152 69.5848 3.016 69.5848 4.12V12.448C69.5848 13.552 69.2648 14.424 68.6248 15.064C68.0008 15.688 67.1368 16 66.0328 16ZM74.5464 16H73.4664C73.2424 16 73.1304 15.888 73.1304 15.664V0.904C73.1304 0.68 73.2424 0.568 73.4664 0.568H80.9304C81.1544 0.568 81.2664 0.68 81.2664 0.904V1.768C81.2664 1.992 81.1544 2.104 80.9304 2.104H75.1224C74.9624 2.104 74.8824 2.176 74.8824 2.32V7.552C74.8824 7.696 74.9624 7.768 75.1224 7.768H80.2584C80.4824 7.768 80.5944 7.88 80.5944 8.104V8.968C80.5944 9.192 80.4824 9.304 80.2584 9.304H75.1224C74.9624 9.304 74.8824 9.384 74.8824 9.544V15.664C74.8824 15.888 74.7704 16 74.5464 16ZM87.8671 16H86.7871C86.5631 16 86.4511 15.888 86.4511 15.664V2.32C86.4511 2.176 86.3711 2.104 86.2111 2.104H82.9471C82.7071 2.104 82.5871 1.992 82.5871 1.768V0.904C82.5871 0.68 82.7071 0.568 82.9471 0.568H91.7071C91.9471 0.568 92.0671 0.68 92.0671 0.904V1.768C92.0671 1.992 91.9471 2.104 91.7071 2.104H88.4431C88.2831 2.104 88.2031 2.176 88.2031 2.32V15.664C88.2031 15.888 88.0911 16 87.8671 16ZM98.4213 16H96.5733C96.3493 16 96.2133 15.888 96.1653 15.664L93.0933 0.904C93.0453 0.68 93.1493 0.568 93.4053 0.568H94.7013C94.9413 0.568 95.0693 0.68 95.0853 0.904L97.5093 14.128H97.6533L100.893 0.879999C100.941 0.671999 101.069 0.568 101.277 0.568H102.717C102.925 0.568 103.053 0.671999 103.101 0.879999L106.389 14.128H106.533L108.933 0.927999C108.981 0.688 109.117 0.568 109.341 0.568H110.637C110.893 0.568 110.997 0.688 110.949 0.927999L107.853 15.664C107.805 15.888 107.677 16 107.469 16H105.621C105.397 16 105.261 15.888 105.213 15.664L102.069 2.776H101.973L98.8053 15.664C98.7573 15.888 98.6293 16 98.4213 16ZM113.658 16H112.458C112.25 16 112.178 15.888 112.242 15.664L116.73 0.904C116.794 0.68 116.946 0.568 117.186 0.568H118.914C119.154 0.568 119.306 0.68 119.37 0.904L123.858 15.664C123.922 15.888 123.85 16 123.642 16H122.418C122.242 16 122.13 15.888 122.082 15.664L120.954 12.16H115.146L114.018 15.664C113.954 15.888 113.834 16 113.658 16ZM118.002 2.368L115.53 10.672H120.57L118.098 2.368H118.002ZM127.843 16H126.763C126.539 16 126.427 15.888 126.427 15.664V0.904C126.427 0.68 126.539 0.568 126.763 0.568H132.283C133.387 0.568 134.259 0.888 134.899 1.528C135.539 2.152 135.859 3.016 135.859 4.12V6.304C135.859 7.2 135.643 7.944 135.211 8.536C134.779 9.112 134.179 9.496 133.411 9.688V9.784L136.195 15.616C136.339 15.872 136.259 16 135.955 16H134.875C134.603 16 134.403 15.888 134.275 15.664L131.587 9.856H128.419C128.259 9.856 128.179 9.928 128.179 10.072V15.664C128.179 15.888 128.067 16 127.843 16ZM128.419 8.392H132.043C133.419 8.392 134.107 7.704 134.107 6.328V4.192C134.107 2.8 133.419 2.104 132.043 2.104H128.419C128.259 2.104 128.179 2.176 128.179 2.32V8.176C128.179 8.32 128.259 8.392 128.419 8.392ZM147.19 16H139.654C139.43 16 139.318 15.888 139.318 15.664V0.904C139.318 0.68 139.43 0.568 139.654 0.568H147.19C147.414 0.568 147.526 0.68 147.526 0.904V1.768C147.526 1.992 147.414 2.104 147.19 2.104H141.31C141.15 2.104 141.07 2.176 141.07 2.32V7.168C141.07 7.312 141.15 7.384 141.31 7.384H146.446C146.67 7.384 146.782 7.496 146.782 7.72V8.584C146.782 8.808 146.67 8.92 146.446 8.92H141.31C141.15 8.92 141.07 8.992 141.07 9.136V14.248C141.07 14.392 141.15 14.464 141.31 14.464H147.19C147.414 14.464 147.526 14.576 147.526 14.8V15.664C147.526 15.888 147.414 16 147.19 16Z"
        fill="#0c4a6e" />
</svg>