<svg width="98" height="54" viewBox="0 0 98 54" fill="none" xmlns="http://www.w3.org/2000/svg">
<rect width="98" height="54" rx="6" fill="#0c4a6e"/>
<path d="M32.6181 41.8653C32.931 42.3123 32.7522 42.6699 32.2158 42.6699H28.7963C28.4387 42.6699 28.2152 42.5805 27.9917 42.2676L17.6437 28.1871L14.1794 32.076V41.9994C14.1794 42.4017 13.9112 42.6699 13.5089 42.6699H10.6705C10.2682 42.6699 10 42.4017 10 41.9994V12.0504C10 11.6481 10.2682 11.3799 10.6705 11.3799H13.5089C13.9112 11.3799 14.1794 11.6481 14.1794 12.0504V26.5109L27.1871 11.7375C27.4106 11.4693 27.6788 11.3799 27.9917 11.3799H31.5677C32.1488 11.3799 32.3276 11.7822 31.9253 12.1845L20.348 25.1699L32.6181 41.8653ZM46.2963 11.3799C57.136 11.3799 62.6788 18.1967 62.6788 27.0249C62.6788 35.8308 57.136 42.6699 46.2963 42.6699H38.8091C38.4068 42.6699 38.1386 42.4017 38.1386 41.9994V12.0504C38.1386 11.6481 38.4068 11.3799 38.8091 11.3799H46.2963ZM46.2963 38.8704C54.4093 38.8704 58.4323 34.378 58.4323 27.0249C58.4323 19.6494 54.4093 15.1794 46.2963 15.1794H42.318V38.8704H46.2963ZM78.4355 24.8123C84.5147 26.0639 90.0798 27.8742 90.0798 34.4898C90.0798 39.8538 86.4815 43.3404 78.5696 43.3404C71.7976 43.3404 67.7299 40.8372 67.2605 35.6967C67.2158 35.2497 67.484 34.8921 67.8863 34.8921H70.613C71.0153 34.8921 71.2388 35.205 71.2835 35.5626C71.6635 38.0211 74.2561 39.5409 78.5696 39.5409C83.3301 39.5409 85.9674 37.9317 85.9674 34.5345C85.9674 30.5785 83.2184 29.7292 78.4355 28.6117C72.7586 27.3155 67.9757 25.371 67.9757 19.3142C67.9757 14.2631 71.3953 11 78.3014 11C84.6935 11 88.6271 13.4361 89.1411 18.4872C89.1858 18.9342 88.9176 19.1577 88.5153 19.1577H85.9898C85.5875 19.1577 85.364 18.9789 85.3193 18.6213C84.984 16.3416 82.5032 14.7324 78.3237 14.7324C74.4796 14.7324 71.9987 16.2969 71.9987 19.3142C71.9987 22.3538 74.0326 23.8959 78.4355 24.8123Z" fill="white"/>
</svg>
