<svg width="255" height="255" viewBox="0 0 255 255" fill="none" xmlns="http://www.w3.org/2000/svg">
<rect width="255" height="255" rx="10" fill="#0C4A6E"/>
<path d="M31.624 178H19.384C17.368 178 16.36 176.992 16.36 174.976V88.432C16.36 86.416 17.368 85.408 19.384 85.408H31.624C33.64 85.408 34.648 86.416 34.648 88.432V129.472H34.936C35.704 127.168 37.192 124.192 39.4 120.544L61.288 88.432C62.536 86.416 64.408 85.408 66.904 85.408H81.016C82.072 85.408 82.696 85.744 82.888 86.416C83.176 86.992 82.936 87.76 82.168 88.72L54.808 126.592L85.336 174.4C86.008 175.552 86.104 176.464 85.624 177.136C85.24 177.712 84.376 178 83.032 178H72.52C69.16 178 66.904 176.992 65.752 174.976L43.72 139.696L34.648 150.352V174.976C34.648 176.992 33.64 178 31.624 178ZM116.529 162.16H132.225C135.297 162.16 137.457 161.536 138.705 160.288C140.049 158.944 140.721 156.736 140.721 153.664V109.744C140.721 106.672 140.049 104.512 138.705 103.264C137.457 101.92 135.297 101.248 132.225 101.248H116.529C115.473 101.248 114.945 101.776 114.945 102.832V160.576C114.945 161.632 115.473 162.16 116.529 162.16ZM96.6569 174.976V88.432C96.6569 86.416 97.6649 85.408 99.6809 85.408H135.249C142.737 85.408 148.545 87.472 152.673 91.6C156.897 95.632 159.009 101.392 159.009 108.88V154.528C159.009 162.016 156.897 167.824 152.673 171.952C148.545 175.984 142.737 178 135.249 178H99.6809C97.6649 178 96.6569 176.992 96.6569 174.976ZM173.947 154.384V151.504C173.947 149.488 174.955 148.48 176.971 148.48H189.211C191.227 148.48 192.235 149.488 192.235 151.504V152.656C192.235 156.304 192.955 158.8 194.395 160.144C195.835 161.488 198.475 162.16 202.315 162.16H209.083C212.827 162.16 215.419 161.44 216.859 160C218.395 158.56 219.163 155.872 219.163 151.936V150.208C219.163 147.424 218.011 145.312 215.707 143.872C213.499 142.336 210.715 141.424 207.355 141.136C203.995 140.848 200.347 140.32 196.411 139.552C192.571 138.688 188.971 137.632 185.611 136.384C182.251 135.04 179.419 132.496 177.115 128.752C174.907 124.912 173.803 120.016 173.803 114.064V109.024C173.803 101.536 175.915 95.728 180.139 91.6C184.363 87.472 190.219 85.408 197.707 85.408H212.107C219.691 85.408 225.595 87.472 229.819 91.6C234.043 95.728 236.155 101.536 236.155 109.024V111.76C236.155 113.776 235.147 114.784 233.131 114.784H220.891C218.875 114.784 217.867 113.776 217.867 111.76V110.896C217.867 107.152 217.147 104.608 215.707 103.264C214.267 101.92 211.627 101.248 207.787 101.248H202.171C198.235 101.248 195.547 102.016 194.107 103.552C192.763 104.992 192.091 107.872 192.091 112.192V114.928C192.091 119.44 196.027 122.032 203.899 122.704C212.059 123.376 219.307 125.008 225.643 127.6C229.003 129.04 231.787 131.632 233.995 135.376C236.299 139.024 237.451 143.728 237.451 149.488V154.384C237.451 161.872 235.339 167.68 231.115 171.808C226.891 175.936 221.035 178 213.547 178H197.851C190.363 178 184.507 175.936 180.283 171.808C176.059 167.68 173.947 161.872 173.947 154.384Z" fill="white"/>
</svg>
