<svg width="920" height="198" viewBox="0 0 920 198" fill="none" xmlns="http://www.w3.org/2000/svg">
<rect width="920" height="198" rx="10" fill="#0C4A6E"/>
<path d="M29.856 150.83H25.68C24.72 150.83 24.24 150.254 24.24 149.102V59.966C24.24 58.814 24.72 58.238 25.68 58.238H29.856C30.912 58.238 31.44 58.814 31.44 59.966V113.102H32.016C32.592 111.566 33.456 109.982 34.608 108.35L71.184 59.966C72.048 58.814 73.056 58.238 74.208 58.238H79.248C80.496 58.238 80.688 58.814 79.824 59.966L50.88 98.702L84.288 149.102C85.056 150.254 84.768 150.83 83.424 150.83H79.392C77.952 150.83 76.896 150.254 76.224 149.102L46.272 104.174L31.44 122.03V149.102C31.44 150.254 30.912 150.83 29.856 150.83ZM109.239 144.35H136.887C141.303 144.35 144.663 143.15 146.967 140.75C149.367 138.254 150.567 134.702 150.567 130.094V78.974C150.567 74.366 149.367 70.8619 146.967 68.462C144.663 65.966 141.303 64.7179 136.887 64.7179H109.239C108.279 64.7179 107.799 65.1499 107.799 66.0139V143.054C107.799 143.918 108.279 144.35 109.239 144.35ZM100.599 149.102V59.966C100.599 58.814 101.079 58.238 102.039 58.238H137.607C143.847 58.238 148.743 60.062 152.295 63.71C155.943 67.358 157.767 72.35 157.767 78.6859V130.382C157.767 136.718 155.943 141.71 152.295 145.358C148.743 149.006 143.847 150.83 137.607 150.83H102.039C101.079 150.83 100.599 150.254 100.599 149.102ZM180.18 130.382V125.198C180.18 124.142 180.708 123.614 181.764 123.614H185.94C186.996 123.614 187.524 124.142 187.524 125.198V129.95C187.524 139.55 192.18 144.35 201.492 144.35H216.468C225.78 144.35 230.436 139.502 230.436 129.806V123.758C230.436 119.534 228.708 116.222 225.252 113.822C221.796 111.422 217.62 109.694 212.724 108.638C207.828 107.582 202.884 106.478 197.892 105.326C192.996 104.174 188.82 102.062 185.364 98.99C181.908 95.918 180.18 91.79 180.18 86.606V78.6859C180.18 72.35 182.004 67.358 185.652 63.71C189.3 60.062 194.244 58.238 200.484 58.238H217.188C223.428 58.238 228.372 60.062 232.02 63.71C235.668 67.358 237.492 72.35 237.492 78.6859V82.718C237.492 83.774 236.964 84.302 235.908 84.302H231.732C230.676 84.302 230.148 83.774 230.148 82.718V79.118C230.148 69.518 225.492 64.7179 216.18 64.7179H201.348C192.132 64.7179 187.524 69.614 187.524 79.406V86.606C187.524 93.23 193.428 97.694 205.236 99.998C210.132 100.958 215.028 102.062 219.924 103.31C224.916 104.558 229.14 106.814 232.596 110.078C236.052 113.342 237.78 117.758 237.78 123.326V130.382C237.78 136.718 235.956 141.71 232.308 145.358C228.66 149.006 223.716 150.83 217.476 150.83H200.484C194.244 150.83 189.3 149.006 185.652 145.358C182.004 141.71 180.18 136.718 180.18 130.382ZM299.43 130.382V125.198C299.43 124.142 299.958 123.614 301.014 123.614H305.19C306.246 123.614 306.774 124.142 306.774 125.198V129.95C306.774 139.55 311.43 144.35 320.742 144.35H335.718C345.03 144.35 349.686 139.502 349.686 129.806V123.758C349.686 119.534 347.958 116.222 344.502 113.822C341.046 111.422 336.87 109.694 331.974 108.638C327.078 107.582 322.134 106.478 317.142 105.326C312.246 104.174 308.07 102.062 304.614 98.99C301.158 95.918 299.43 91.79 299.43 86.606V78.6859C299.43 72.35 301.254 67.358 304.902 63.71C308.55 60.062 313.494 58.238 319.734 58.238H336.438C342.678 58.238 347.622 60.062 351.27 63.71C354.918 67.358 356.742 72.35 356.742 78.6859V82.718C356.742 83.774 356.214 84.302 355.158 84.302H350.982C349.926 84.302 349.398 83.774 349.398 82.718V79.118C349.398 69.518 344.742 64.7179 335.43 64.7179H320.598C311.382 64.7179 306.774 69.614 306.774 79.406V86.606C306.774 93.23 312.678 97.694 324.486 99.998C329.382 100.958 334.278 102.062 339.174 103.31C344.166 104.558 348.39 106.814 351.846 110.078C355.302 113.342 357.03 117.758 357.03 123.326V130.382C357.03 136.718 355.206 141.71 351.558 145.358C347.91 149.006 342.966 150.83 336.726 150.83H319.734C313.494 150.83 308.55 149.006 304.902 145.358C301.254 141.71 299.43 136.718 299.43 130.382ZM400.161 144.35H416.577C420.993 144.35 424.353 143.15 426.657 140.75C429.057 138.254 430.257 134.702 430.257 130.094V78.974C430.257 74.366 429.057 70.8619 426.657 68.462C424.353 65.966 420.993 64.7179 416.577 64.7179H400.161C395.745 64.7179 392.385 65.966 390.081 68.462C387.777 70.958 386.625 74.462 386.625 78.974V130.094C386.625 134.606 387.777 138.11 390.081 140.606C392.385 143.102 395.745 144.35 400.161 144.35ZM417.297 150.83H399.585C393.345 150.83 388.401 149.006 384.753 145.358C381.201 141.71 379.425 136.718 379.425 130.382V78.6859C379.425 72.35 381.201 67.358 384.753 63.71C388.401 60.062 393.345 58.238 399.585 58.238H417.297C423.537 58.238 428.433 60.062 431.985 63.71C435.633 67.358 437.457 72.35 437.457 78.6859V130.382C437.457 136.718 435.633 141.71 431.985 145.358C428.433 149.006 423.537 150.83 417.297 150.83ZM466.075 150.83H461.899C460.939 150.83 460.459 150.254 460.459 149.102V59.966C460.459 58.814 460.939 58.238 461.899 58.238H506.251C507.403 58.238 507.979 58.766 507.979 59.822V63.134C507.979 64.1899 507.403 64.7179 506.251 64.7179H469.099C468.139 64.7179 467.659 65.1499 467.659 66.0139V101.006C467.659 101.774 468.139 102.158 469.099 102.158H502.363C503.419 102.158 503.947 102.686 503.947 103.742V107.198C503.947 108.254 503.419 108.782 502.363 108.782H469.099C468.139 108.782 467.659 109.166 467.659 109.934V149.102C467.659 150.254 467.131 150.83 466.075 150.83ZM546.713 150.83H542.537C541.481 150.83 540.953 150.254 540.953 149.102V66.0139C540.953 65.1499 540.473 64.7179 539.513 64.7179H518.633C517.481 64.7179 516.905 64.1899 516.905 63.134V59.822C516.905 58.766 517.481 58.238 518.633 58.238H570.473C571.625 58.238 572.201 58.766 572.201 59.822V63.134C572.201 64.1899 571.625 64.7179 570.473 64.7179H549.593C548.633 64.7179 548.153 65.1499 548.153 66.0139V149.102C548.153 150.254 547.673 150.83 546.713 150.83ZM608.333 150.83H601.133C600.077 150.83 599.405 150.254 599.117 149.102L579.389 59.966C579.101 58.814 579.581 58.238 580.829 58.238H585.581C586.637 58.238 587.261 58.814 587.453 59.966L604.589 142.622H605.309L627.197 59.822C627.389 58.766 628.013 58.238 629.069 58.238H634.541C635.693 58.238 636.365 58.766 636.557 59.822L658.589 142.622H659.309L676.301 59.966C676.493 58.814 677.165 58.238 678.317 58.238H683.213C684.365 58.238 684.797 58.814 684.509 59.966L664.781 149.102C664.589 150.254 663.965 150.83 662.909 150.83H655.565C654.509 150.83 653.837 150.254 653.549 149.102L632.237 67.886H631.661L610.205 149.102C609.917 150.254 609.293 150.83 608.333 150.83ZM698.901 150.83H694.437C693.381 150.83 693.045 150.254 693.429 149.102L722.085 59.966C722.373 58.814 723.045 58.238 724.101 58.238H730.869C731.829 58.238 732.501 58.814 732.885 59.966L761.541 149.102C761.829 150.254 761.493 150.83 760.533 150.83H755.925C754.965 150.83 754.341 150.254 754.053 149.102L746.277 126.062H708.549L700.773 149.102C700.389 150.254 699.765 150.83 698.901 150.83ZM727.125 66.158L710.565 119.582H744.405L727.701 66.158H727.125ZM783.747 150.83H779.571C778.611 150.83 778.131 150.254 778.131 149.102V59.966C778.131 58.814 778.611 58.238 779.571 58.238H812.403C818.643 58.238 823.587 60.062 827.235 63.71C830.883 67.358 832.707 72.35 832.707 78.6859V92.366C832.707 97.742 831.315 102.158 828.531 105.614C825.843 109.07 822.147 111.278 817.443 112.238V112.814L834.579 149.102C835.155 150.254 834.819 150.83 833.571 150.83H829.107C827.859 150.83 826.995 150.254 826.515 149.102L809.523 112.814H786.771C785.811 112.814 785.331 113.246 785.331 114.11V149.102C785.331 150.254 784.803 150.83 783.747 150.83ZM786.771 106.622H811.683C816.099 106.622 819.507 105.422 821.907 103.022C824.307 100.526 825.507 97.022 825.507 92.51V78.974C825.507 74.462 824.307 70.958 821.907 68.462C819.507 65.966 816.099 64.7179 811.683 64.7179H786.771C785.811 64.7179 785.331 65.1499 785.331 66.0139V105.326C785.331 106.19 785.811 106.622 786.771 106.622ZM900.989 150.83H856.493C855.533 150.83 855.053 150.254 855.053 149.102V59.966C855.053 58.814 855.533 58.238 856.493 58.238H900.989C902.141 58.238 902.717 58.766 902.717 59.822V63.134C902.717 64.1899 902.141 64.7179 900.989 64.7179H863.693C862.733 64.7179 862.253 65.1499 862.253 66.0139V99.134C862.253 99.998 862.733 100.43 863.693 100.43H896.957C898.013 100.43 898.541 100.958 898.541 102.014V105.326C898.541 106.382 898.013 106.91 896.957 106.91H863.693C862.733 106.91 862.253 107.342 862.253 108.206V143.054C862.253 143.918 862.733 144.35 863.693 144.35H900.989C902.141 144.35 902.717 144.878 902.717 145.934V149.246C902.717 150.302 902.141 150.83 900.989 150.83Z" fill="#F59E0B"/>
</svg>
