<svg width="181" height="44" viewBox="0 0 181 44" fill="none" xmlns="http://www.w3.org/2000/svg">
<rect width="181" height="44" rx="12" fill="#84CC16"/>
<path d="M16.728 27.448V26.68C16.728 26.456 16.84 26.344 17.064 26.344H18.144C18.368 26.344 18.48 26.456 18.48 26.68V27.304C18.48 28.744 19.192 29.464 20.616 29.464H22.728C24.152 29.464 24.864 28.728 24.864 27.256V26.44C24.864 25.288 23.912 24.536 22.008 24.184C21.208 24.04 20.408 23.872 19.608 23.68C18.808 23.488 18.128 23.12 17.568 22.576C17.008 22.016 16.728 21.256 16.728 20.296V19.12C16.728 18.016 17.04 17.152 17.664 16.528C18.304 15.888 19.176 15.568 20.28 15.568H22.944C24.032 15.568 24.896 15.888 25.536 16.528C26.176 17.152 26.496 18.016 26.496 19.12V19.72C26.496 19.96 26.392 20.08 26.184 20.08H25.08C24.872 20.08 24.768 19.96 24.768 19.72V19.288C24.768 17.832 24.056 17.104 22.632 17.104H20.592C19.168 17.104 18.456 17.864 18.456 19.384V20.344C18.456 21.16 18.992 21.72 20.064 22.024C20.544 22.152 21.072 22.272 21.648 22.384C22.224 22.48 22.8 22.616 23.376 22.792C23.968 22.952 24.504 23.16 24.984 23.416C25.464 23.656 25.848 24.032 26.136 24.544C26.44 25.04 26.592 25.648 26.592 26.368V27.448C26.592 28.552 26.272 29.424 25.632 30.064C24.992 30.688 24.128 31 23.04 31H20.28C19.192 31 18.328 30.688 17.688 30.064C17.048 29.424 16.728 28.552 16.728 27.448ZM31.6005 31H30.5445C30.3205 31 30.2085 30.888 30.2085 30.664V15.904C30.2085 15.68 30.3205 15.568 30.5445 15.568H31.5285C31.7205 15.568 31.8485 15.632 31.9125 15.76L38.5365 27.4H38.6325V15.904C38.6325 15.68 38.7445 15.568 38.9685 15.568H40.0245C40.2485 15.568 40.3605 15.68 40.3605 15.904V30.664C40.3605 30.888 40.2485 31 40.0245 31H39.1365C38.9605 31 38.7925 30.896 38.6325 30.688L32.0325 19.168H31.9365V30.664C31.9365 30.888 31.8245 31 31.6005 31ZM44.3458 31H43.1458C42.9378 31 42.8658 30.888 42.9298 30.664L47.4178 15.904C47.4818 15.68 47.6338 15.568 47.8738 15.568H49.6018C49.8418 15.568 49.9938 15.68 50.0578 15.904L54.5458 30.664C54.6098 30.888 54.5378 31 54.3298 31H53.1058C52.9298 31 52.8178 30.888 52.7698 30.664L51.6418 27.16H45.8338L44.7058 30.664C44.6418 30.888 44.5218 31 44.3458 31ZM48.6898 17.368L46.2178 25.672H51.2578L48.7858 17.368H48.6898ZM58.5308 31H57.4508C57.2268 31 57.1148 30.888 57.1148 30.664V15.904C57.1148 15.68 57.2268 15.568 57.4508 15.568H58.5308C58.7548 15.568 58.8668 15.68 58.8668 15.904V24.184H58.9388C59.0508 23.848 59.2268 23.52 59.4668 23.2L64.8428 15.904C64.9868 15.68 65.1948 15.568 65.4668 15.568H66.7628C67.0348 15.568 67.0748 15.688 66.8828 15.928L62.1308 22.36L67.5547 30.616C67.7308 30.872 67.6588 31 67.3387 31H66.3548C66.0188 31 65.7868 30.888 65.6588 30.664L61.0508 23.632L58.8668 26.248V30.664C58.8668 30.888 58.7548 31 58.5308 31ZM77.9008 31H70.3648C70.1408 31 70.0288 30.888 70.0288 30.664V15.904C70.0288 15.68 70.1408 15.568 70.3648 15.568H77.9008C78.1248 15.568 78.2368 15.68 78.2368 15.904V16.768C78.2368 16.992 78.1248 17.104 77.9008 17.104H72.0208C71.8608 17.104 71.7808 17.176 71.7808 17.32V22.168C71.7808 22.312 71.8608 22.384 72.0208 22.384H77.1568C77.3808 22.384 77.4928 22.496 77.4928 22.72V23.584C77.4928 23.808 77.3808 23.92 77.1568 23.92H72.0208C71.8608 23.92 71.7808 23.992 71.7808 24.136V29.248C71.7808 29.392 71.8608 29.464 72.0208 29.464H77.9008C78.1248 29.464 78.2368 29.576 78.2368 29.8V30.664C78.2368 30.888 78.1248 31 77.9008 31ZM82.9761 31H81.8961C81.6721 31 81.5601 30.888 81.5601 30.664V15.904C81.5601 15.68 81.6721 15.568 81.8961 15.568H82.9761C83.2001 15.568 83.3121 15.68 83.3121 15.904V22.216C83.3121 22.36 83.3921 22.432 83.5521 22.432H89.5041C89.6641 22.432 89.7441 22.36 89.7441 22.216V15.904C89.7441 15.68 89.8561 15.568 90.0801 15.568H91.1601C91.3841 15.568 91.4961 15.68 91.4961 15.904V30.664C91.4961 30.888 91.3841 31 91.1601 31H90.0801C89.8561 31 89.7441 30.888 89.7441 30.664V24.184C89.7441 24.04 89.6641 23.968 89.5041 23.968H83.5521C83.3921 23.968 83.3121 24.04 83.3121 24.184V30.664C83.3121 30.888 83.2001 31 82.9761 31ZM103.166 31H95.6304C95.4064 31 95.2944 30.888 95.2944 30.664V15.904C95.2944 15.68 95.4064 15.568 95.6304 15.568H103.166C103.39 15.568 103.502 15.68 103.502 15.904V16.768C103.502 16.992 103.39 17.104 103.166 17.104H97.2864C97.1264 17.104 97.0464 17.176 97.0464 17.32V22.168C97.0464 22.312 97.1264 22.384 97.2864 22.384H102.422C102.646 22.384 102.758 22.496 102.758 22.72V23.584C102.758 23.808 102.646 23.92 102.422 23.92H97.2864C97.1264 23.92 97.0464 23.992 97.0464 24.136V29.248C97.0464 29.392 97.1264 29.464 97.2864 29.464H103.166C103.39 29.464 103.502 29.576 103.502 29.8V30.664C103.502 30.888 103.39 31 103.166 31ZM107.018 31H105.818C105.61 31 105.538 30.888 105.602 30.664L110.09 15.904C110.154 15.68 110.306 15.568 110.546 15.568H112.274C112.514 15.568 112.666 15.68 112.73 15.904L117.218 30.664C117.282 30.888 117.21 31 117.002 31H115.778C115.602 31 115.49 30.888 115.442 30.664L114.314 27.16H108.506L107.378 30.664C107.314 30.888 107.194 31 107.018 31ZM111.362 17.368L108.89 25.672H113.93L111.458 17.368H111.362ZM121.779 29.464H125.811C127.155 29.464 127.827 28.768 127.827 27.376V19.192C127.827 17.8 127.155 17.104 125.811 17.104H121.779C121.619 17.104 121.539 17.176 121.539 17.32V29.248C121.539 29.392 121.619 29.464 121.779 29.464ZM119.787 30.664V15.904C119.787 15.68 119.899 15.568 120.123 15.568H126.027C127.131 15.568 127.995 15.888 128.619 16.528C129.259 17.152 129.579 18.016 129.579 19.12V27.448C129.579 28.552 129.259 29.424 128.619 30.064C127.995 30.688 127.131 31 126.027 31H120.123C119.899 31 119.787 30.888 119.787 30.664ZM136.483 29.464H138.451C139.795 29.464 140.467 28.768 140.467 27.376V19.192C140.467 17.8 139.795 17.104 138.451 17.104H136.483C135.155 17.104 134.491 17.8 134.491 19.192V27.376C134.491 28.768 135.155 29.464 136.483 29.464ZM138.667 31H136.267C135.179 31 134.315 30.688 133.675 30.064C133.051 29.44 132.739 28.568 132.739 27.448V19.12C132.739 18.016 133.051 17.152 133.675 16.528C134.315 15.888 135.179 15.568 136.267 15.568H138.667C139.755 15.568 140.611 15.888 141.235 16.528C141.875 17.152 142.195 18.016 142.195 19.12V27.448C142.195 28.568 141.875 29.44 141.235 30.064C140.611 30.688 139.755 31 138.667 31ZM148.951 29.464H150.919C152.263 29.464 152.935 28.768 152.935 27.376V19.192C152.935 17.8 152.263 17.104 150.919 17.104H148.951C147.623 17.104 146.959 17.8 146.959 19.192V27.376C146.959 28.768 147.623 29.464 148.951 29.464ZM151.135 31H148.735C147.647 31 146.783 30.688 146.143 30.064C145.519 29.44 145.207 28.568 145.207 27.448V19.12C145.207 18.016 145.519 17.152 146.143 16.528C146.783 15.888 147.647 15.568 148.735 15.568H151.135C152.223 15.568 153.079 15.888 153.703 16.528C154.343 17.152 154.663 18.016 154.663 19.12V27.448C154.663 28.568 154.343 29.44 153.703 30.064C153.079 30.688 152.223 31 151.135 31ZM159.404 31H158.276C158.02 31 157.956 30.864 158.084 30.592L163.292 17.176H156.908C156.684 17.176 156.572 17.064 156.572 16.84V15.904C156.572 15.68 156.684 15.568 156.908 15.568H164.828C165.052 15.568 165.164 15.68 165.164 15.904V16.912C165.164 17.168 165.1 17.424 164.972 17.68L159.956 30.688C159.876 30.896 159.692 31 159.404 31Z" fill="#0C4A6E"/>
</svg>
