<svg width="50" height="50" viewBox="0 0 50 50" fill="none" xmlns="http://www.w3.org/2000/svg">
<rect width="50" height="50" rx="12" fill="#84CC16"/>
<path d="M2.372 28.408V27.848C2.372 27.456 2.568 27.26 2.96 27.26H5.34C5.732 27.26 5.928 27.456 5.928 27.848V28.072C5.928 28.7813 6.068 29.2667 6.348 29.528C6.628 29.7893 7.14133 29.92 7.888 29.92H9.204C9.932 29.92 10.436 29.78 10.716 29.5C11.0147 29.22 11.164 28.6973 11.164 27.932V27.596C11.164 27.0547 10.94 26.644 10.492 26.364C10.0627 26.0653 9.52133 25.888 8.868 25.832C8.21467 25.776 7.50533 25.6733 6.74 25.524C5.99333 25.356 5.29333 25.1507 4.64 24.908C3.98667 24.6467 3.436 24.152 2.988 23.424C2.55867 22.6773 2.344 21.7253 2.344 20.568V19.588C2.344 18.132 2.75467 17.0027 3.576 16.2C4.39733 15.3973 5.536 14.996 6.992 14.996H9.792C11.2667 14.996 12.4147 15.3973 13.236 16.2C14.0573 17.0027 14.468 18.132 14.468 19.588V20.12C14.468 20.512 14.272 20.708 13.88 20.708H11.5C11.108 20.708 10.912 20.512 10.912 20.12V19.952C10.912 19.224 10.772 18.7293 10.492 18.468C10.212 18.2067 9.69867 18.076 8.952 18.076H7.86C7.09467 18.076 6.572 18.2253 6.292 18.524C6.03067 18.804 5.9 19.364 5.9 20.204V20.736C5.9 21.6133 6.66533 22.1173 8.196 22.248C9.78267 22.3787 11.192 22.696 12.424 23.2C13.0773 23.48 13.6187 23.984 14.048 24.712C14.496 25.4213 14.72 26.336 14.72 27.456V28.408C14.72 29.864 14.3093 30.9933 13.488 31.796C12.6667 32.5987 11.528 33 10.072 33H7.02C5.564 33 4.42533 32.5987 3.604 31.796C2.78267 30.9933 2.372 29.864 2.372 28.408ZM20.8258 33H18.5018C18.1098 33 17.9138 32.804 17.9138 32.412V15.584C17.9138 15.192 18.1098 14.996 18.5018 14.996H20.6018C20.9938 14.996 21.2551 15.1267 21.3858 15.388L27.0418 26H27.1538V15.584C27.1538 15.192 27.3498 14.996 27.7418 14.996H30.0658C30.4578 14.996 30.6538 15.192 30.6538 15.584V32.412C30.6538 32.804 30.4578 33 30.0658 33H28.0218C27.6111 33 27.3124 32.8133 27.1258 32.44L21.5258 22.024H21.4138V32.412C21.4138 32.804 21.2178 33 20.8258 33ZM37.2607 33H34.8807C34.4887 33 34.2927 32.804 34.2927 32.412V15.584C34.2927 15.192 34.4887 14.996 34.8807 14.996H37.2607C37.6527 14.996 37.8487 15.192 37.8487 15.584V23.564H37.9047C38.054 23.116 38.3433 22.5373 38.7727 21.828L43.0287 15.584C43.2713 15.192 43.6353 14.996 44.1207 14.996H46.8647C47.07 14.996 47.1913 15.0613 47.2287 15.192C47.2847 15.304 47.238 15.4533 47.0887 15.64L41.7687 23.004L47.7047 32.3C47.8353 32.524 47.854 32.7013 47.7607 32.832C47.686 32.944 47.518 33 47.2567 33H45.2127C44.5593 33 44.1207 32.804 43.8967 32.412L39.6127 25.552L37.8487 27.624V32.412C37.8487 32.804 37.6527 33 37.2607 33Z" fill="#0C4A6E"/>
</svg>
