<svg width="50" height="50" viewBox="0 0 50 50" fill="none" xmlns="http://www.w3.org/2000/svg">
<rect width="50" height="50" rx="12" fill="#0C4A6E"/>
<path d="M5.728 28.448V27.68C5.728 27.456 5.84 27.344 6.064 27.344H7.144C7.368 27.344 7.48 27.456 7.48 27.68V28.304C7.48 29.744 8.192 30.464 9.616 30.464H11.728C13.152 30.464 13.864 29.728 13.864 28.256V27.44C13.864 26.288 12.912 25.536 11.008 25.184C10.208 25.04 9.408 24.872 8.608 24.68C7.808 24.488 7.128 24.12 6.568 23.576C6.008 23.016 5.728 22.256 5.728 21.296V20.12C5.728 19.016 6.04 18.152 6.664 17.528C7.304 16.888 8.176 16.568 9.28 16.568H11.944C13.032 16.568 13.896 16.888 14.536 17.528C15.176 18.152 15.496 19.016 15.496 20.12V20.72C15.496 20.96 15.392 21.08 15.184 21.08H14.08C13.872 21.08 13.768 20.96 13.768 20.72V20.288C13.768 18.832 13.056 18.104 11.632 18.104H9.592C8.168 18.104 7.456 18.864 7.456 20.384V21.344C7.456 22.16 7.992 22.72 9.064 23.024C9.544 23.152 10.072 23.272 10.648 23.384C11.224 23.48 11.8 23.616 12.376 23.792C12.968 23.952 13.504 24.16 13.984 24.416C14.464 24.656 14.848 25.032 15.136 25.544C15.44 26.04 15.592 26.648 15.592 27.368V28.448C15.592 29.552 15.272 30.424 14.632 31.064C13.992 31.688 13.128 32 12.04 32H9.28C8.192 32 7.328 31.688 6.688 31.064C6.048 30.424 5.728 29.552 5.728 28.448ZM20.6005 32H19.5445C19.3205 32 19.2085 31.888 19.2085 31.664V16.904C19.2085 16.68 19.3205 16.568 19.5445 16.568H20.5285C20.7205 16.568 20.8485 16.632 20.9125 16.76L27.5365 28.4H27.6325V16.904C27.6325 16.68 27.7445 16.568 27.9685 16.568H29.0245C29.2485 16.568 29.3605 16.68 29.3605 16.904V31.664C29.3605 31.888 29.2485 32 29.0245 32H28.1365C27.9605 32 27.7925 31.896 27.6325 31.688L21.0325 20.168H20.9365V31.664C20.9365 31.888 20.8245 32 20.6005 32ZM34.5698 32H33.4898C33.2658 32 33.1538 31.888 33.1538 31.664V16.904C33.1538 16.68 33.2658 16.568 33.4898 16.568H34.5698C34.7938 16.568 34.9058 16.68 34.9058 16.904V25.184H34.9778C35.0898 24.848 35.2658 24.52 35.5058 24.2L40.8818 16.904C41.0258 16.68 41.2338 16.568 41.5058 16.568H42.8018C43.0738 16.568 43.1138 16.688 42.9218 16.928L38.1698 23.36L43.5938 31.616C43.7698 31.872 43.6978 32 43.3778 32H42.3938C42.0578 32 41.8258 31.888 41.6978 31.664L37.0898 24.632L34.9058 27.248V31.664C34.9058 31.888 34.7938 32 34.5698 32Z" fill="#84CC16"/>
</svg>
